<svg width="80" height="80" viewBox="0 0 80 80" fill="none" xmlns="http://www.w3.org/2000/svg">
    <path opacity="0.2" fill-rule="evenodd" clip-rule="evenodd" d="M42.4774 0.427895C50.1689 1.78453 55.1771 8.65994 61.1464 13.7479C66.5948 18.3918 72.6815 22.2949 75.7574 28.7939C79.1461 35.9539 81.2813 44.1332 79.1418 51.7702C76.9637 59.5446 70.6924 65.241 64.2189 69.9799C57.7545 74.7122 50.4582 78.6833 42.4774 78.6105C34.5364 78.538 26.6803 75.2161 21.0192 69.5856C15.7817 64.3766 15.8437 56.2659 13.0878 49.3804C10.032 41.7452 3.00763 35.2642 4.01119 27.0903C5.07051 18.4622 11.2958 11.1225 18.3886 6.2062C25.3658 1.37004 34.1437 -1.042 42.4774 0.427895Z" fill="url(#paint0_linear)"/>
    <path opacity="0.2" fill-rule="evenodd" clip-rule="evenodd" d="M39.0656 4.74031C46.7794 5.41081 53.8233 8.32557 60.3999 12.4556C67.4694 16.8952 76.3061 21.0965 78.1682 29.2965C80.0187 37.4456 72.9945 44.5734 69.4036 52.1053C66.3838 58.4394 64.0378 64.9963 58.8923 69.7274C53.2607 74.9054 46.6782 79.984 39.0656 79.9998C31.4476 80.0156 24.8833 74.9148 19.1796 69.8097C13.9235 65.1051 11.1345 58.7147 8.12286 52.304C4.59923 44.8034 -1.08626 37.572 0.180779 29.368C1.51677 20.7175 7.54874 13.148 14.888 8.49962C21.9712 4.01349 30.7378 4.01643 39.0656 4.74031Z" fill="url(#paint1_linear)"/>
    <path opacity="0.9" fill-rule="evenodd" clip-rule="evenodd" d="M39.4685 8.8437C47.6146 8.21284 56.5472 5.36025 63.3544 9.92763C70.2168 14.532 73.3547 23.5708 73.8089 31.8848C74.2101 39.2286 69.271 45.3891 65.6399 51.7625C62.7888 56.7669 59.5743 61.3205 55.0386 64.8314C50.3946 68.4259 45.1077 70.4514 39.4685 72.0201C31.6847 74.1854 23.1312 79.7006 16.1176 75.6586C9.17353 71.6566 9.8805 61.3796 7.57799 53.6412C5.33923 46.117 0.884631 38.7397 2.87254 31.1438C4.90134 23.3917 11.308 17.5717 18.1011 13.4322C24.4937 9.53679 32.0263 9.42005 39.4685 8.8437Z" fill="url(#paint2_linear)"/>
    <g clip-path="url(#clip0)">
        <path d="M57.9993 50.7938C57.9993 50.7008 57.9843 50.6074 57.9523 50.5174C57.2617 48.5768 54.5588 41.8753 53.897 40.0267V30.8523C53.897 29.7969 53.0383 28.9382 51.9829 28.9382H47.9759V26.8763H51.3556C52.3343 26.8763 53.1305 26.0802 53.1305 25.1014V21.2285C53.1305 20.2498 52.3344 19.4536 51.3556 19.4536H39.2354C38.2566 19.4536 37.4605 20.2498 37.4605 21.2285V25.1013C37.4605 26.0801 38.2566 26.8763 39.2354 26.8763H42.6151V28.9381H35.2645V26.1753C35.2645 25.842 35.064 25.5414 34.7562 25.4136L32.3739 24.4239C32.1712 24.3397 31.9436 24.3397 31.7411 24.4239L29.6747 25.2822L27.6084 24.4239C27.3538 24.3182 27.0633 24.3466 26.8341 24.4996C26.6048 24.6525 26.4672 24.9099 26.4672 25.1855V28.9381H24.0172C22.9618 28.9381 22.1031 29.7967 22.1031 30.8521V40.0266C21.4412 41.8752 18.7383 48.5767 18.0477 50.5173L18.0482 50.518C18.0176 50.6044 18 50.6969 18 50.7938V57.7217C18 58.1771 18.3693 58.5464 18.8248 58.5464H57.1753C57.6307 58.5464 58.0001 58.1772 58.0001 57.7217V50.7938H57.9993ZM39.2354 25.2268C39.1662 25.2268 39.1099 25.1706 39.1099 25.1013V21.2285C39.1099 21.1593 39.1662 21.1031 39.2354 21.1031H51.3556C51.4248 21.1031 51.4811 21.1593 51.4811 21.2285V25.1013C51.4811 25.1706 51.4248 25.2268 51.3556 25.2268H39.2354ZM46.3264 26.8763V28.9382H44.2645V26.8763H46.3264ZM29.9912 26.9369L32.0576 26.0787L33.6152 26.7258V34.1341H28.117V26.4213L29.3584 26.937C29.5607 27.021 29.7885 27.0211 29.9912 26.9369ZM23.7526 30.8522C23.7526 30.7063 23.8712 30.5876 24.0172 30.5876H26.4674V34.9588C26.4674 35.4143 26.8367 35.7835 27.2922 35.7835H34.4399C34.8953 35.7835 35.2647 35.4143 35.2647 34.9588V30.5876H51.9828C52.1287 30.5876 52.2474 30.7063 52.2474 30.8522V39.3299H23.7526V30.8522ZM23.5135 40.9794H52.4866C53.1128 42.701 55.4484 48.4908 55.9977 49.9691H20.0024C20.5516 48.4908 22.8873 42.701 23.5135 40.9794ZM56.3505 56.8969H19.6495V51.6185H56.3505V56.8969H56.3505Z" fill="white"/>
        <path d="M53.1446 47.1898L52.9617 46.73C52.7932 46.3067 52.3135 46.1002 51.8906 46.2686C51.4673 46.437 51.2607 46.9165 51.429 47.3398L51.6119 47.7995C51.7406 48.1227 52.0506 48.3196 52.3785 48.3196C52.4799 48.3196 52.5831 48.3007 52.6831 48.261C53.1064 48.0926 53.3129 47.6131 53.1446 47.1898Z" fill="white"/>
        <path d="M51.7198 43.6088L51.537 43.149C51.3685 42.7257 50.889 42.5193 50.4658 42.6875C50.0425 42.8559 49.8359 43.3354 50.0042 43.7586L50.1871 44.2184C50.3158 44.5416 50.6258 44.7385 50.9537 44.7385C51.0552 44.7385 51.1583 44.7196 51.2584 44.6799C51.6816 44.5116 51.8882 44.032 51.7198 43.6088Z" fill="white"/>
        <path d="M49.4368 46.799C49.3065 46.3624 48.8469 46.1144 48.4106 46.2446C47.9741 46.3749 47.7259 46.8343 47.8562 47.2708L47.9935 47.7305C48.1003 48.0883 48.4282 48.3196 48.7834 48.3196C48.8615 48.3196 48.9409 48.3084 49.0196 48.285C49.4561 48.1547 49.7043 47.6953 49.574 47.2588L49.4368 46.799Z" fill="white"/>
        <path d="M48.5054 43.6773L48.3681 43.2175C48.2378 42.7811 47.7783 42.5327 47.3419 42.6632C46.9054 42.7934 46.6572 43.2529 46.7876 43.6893L46.9248 44.1491C47.0316 44.5068 47.3595 44.7383 47.7147 44.7383C47.7929 44.7383 47.8722 44.7271 47.9509 44.7036C48.3875 44.5733 48.6357 44.1138 48.5054 43.6773Z" fill="white"/>
        <path d="M45.9065 46.874C45.8178 46.4272 45.3833 46.1372 44.9367 46.2259C44.49 46.3148 44.1999 46.7489 44.2888 47.1957L44.3802 47.6555C44.4582 48.0479 44.8027 48.3195 45.1882 48.3195C45.2414 48.3195 45.2957 48.3144 45.3499 48.3035C45.7967 48.2147 46.0867 47.7805 45.9978 47.3337L45.9065 46.874Z" fill="white"/>
        <path d="M44.6376 44.7225C45.0844 44.6337 45.3744 44.1995 45.2855 43.7527L45.1941 43.293C45.1054 42.8461 44.6714 42.556 44.2244 42.6449C43.7776 42.7338 43.4875 43.1679 43.5764 43.6147L43.6678 44.0745C43.7458 44.4669 44.0903 44.7385 44.4758 44.7385C44.5292 44.7384 44.5833 44.7333 44.6376 44.7225Z" fill="white"/>
        <path d="M42.3695 46.9536C42.3244 46.5004 41.9208 46.1693 41.4671 46.2146C41.0139 46.2597 40.683 46.6637 40.728 47.1169L40.7738 47.5767C40.8163 48.0022 41.1748 48.3199 41.5935 48.3199C41.6208 48.3199 41.6484 48.3185 41.6762 48.3158C42.1294 48.2707 42.4603 47.8667 42.4152 47.4134L42.3695 46.9536Z" fill="white"/>
        <path d="M41.3201 44.7342C41.7733 44.6892 42.1042 44.2851 42.0592 43.8318L42.0134 43.372C41.9683 42.9188 41.5655 42.5877 41.111 42.6331C40.6578 42.6781 40.3269 43.0821 40.372 43.5354L40.4177 43.9952C40.4602 44.4206 40.8187 44.7384 41.2374 44.7384C41.2648 44.7382 41.2923 44.7369 41.3201 44.7342Z" fill="white"/>
        <path d="M38 46.2104C37.5446 46.2104 37.1752 46.5797 37.1752 47.0352V47.495C37.1752 47.9505 37.5445 48.3197 38 48.3197C38.4555 48.3197 38.8248 47.9505 38.8248 47.495V47.0352C38.8248 46.5797 38.4554 46.2104 38 46.2104Z" fill="white"/>
        <path d="M38 42.6289C37.5446 42.6289 37.1752 42.9981 37.1752 43.4537V43.9134C37.1752 44.3689 37.5445 44.7382 38 44.7382C38.4555 44.7382 38.8248 44.369 38.8248 43.9134V43.4537C38.8248 42.9981 38.4554 42.6289 38 42.6289Z" fill="white"/>
        <path d="M34.5329 46.2147C34.0788 46.169 33.6756 46.5004 33.6306 46.9536L33.5848 47.4134C33.5397 47.8667 33.8707 48.2707 34.3239 48.3157C34.3517 48.3186 34.3792 48.3199 34.4065 48.3199C34.8253 48.3199 35.1839 48.0022 35.2262 47.5767L35.272 47.1169C35.3171 46.6637 34.9861 46.2597 34.5329 46.2147Z" fill="white"/>
        <path d="M34.8889 42.6331C34.4353 42.5874 34.0316 42.9189 33.9866 43.3721L33.9408 43.8319C33.8957 44.2851 34.2267 44.6892 34.6799 44.7342C34.7077 44.737 34.7352 44.7383 34.7625 44.7383C35.1813 44.7383 35.54 44.4207 35.5822 43.9951L35.628 43.5354C35.6731 43.0822 35.3422 42.6783 34.8889 42.6331Z" fill="white"/>
        <path d="M31.0632 46.226C30.6161 46.1371 30.1822 46.4273 30.0934 46.874L30.002 47.3338C29.9132 47.7806 30.2033 48.2147 30.65 48.3035C30.7044 48.3143 30.7583 48.3195 30.8117 48.3195C31.1971 48.3195 31.5418 48.048 31.6197 47.6555L31.7111 47.1957C31.8 46.7489 31.5099 46.3148 31.0632 46.226Z" fill="white"/>
        <path d="M31.7755 42.6444C31.3288 42.5555 30.8945 42.8458 30.8057 43.2925L30.7143 43.7522C30.6255 44.199 30.9156 44.6332 31.3623 44.722C31.4166 44.7328 31.4706 44.738 31.524 44.738C31.9095 44.738 32.2541 44.4665 32.332 44.074L32.4234 43.6142C32.5124 43.1674 32.2223 42.7333 31.7755 42.6444Z" fill="white"/>
        <path d="M27.5894 46.2447C27.1529 46.1142 26.6934 46.3627 26.5632 46.7991L26.4259 47.2588C26.2956 47.6953 26.5439 48.1548 26.9803 48.285C27.059 48.3085 27.1384 48.3196 27.2165 48.3196C27.5717 48.3196 27.8996 48.0884 28.0064 47.7306L28.1436 47.2708C28.274 46.8345 28.0258 46.375 27.5894 46.2447Z" fill="white"/>
        <path d="M28.658 42.6632C28.2215 42.5327 27.7622 42.7811 27.6318 43.2175L27.4946 43.6773C27.3643 44.1138 27.6125 44.5732 28.049 44.7035C28.1276 44.727 28.2071 44.7381 28.2851 44.7381C28.6404 44.7381 28.9683 44.5068 29.0751 44.1489L29.2123 43.6892C29.3426 43.2528 29.0945 42.7934 28.658 42.6632Z" fill="white"/>
        <path d="M24.1094 46.2686C23.6863 46.1002 23.2067 46.3068 23.0383 46.73L22.8554 47.1898C22.687 47.613 22.8937 48.0925 23.3169 48.261C23.417 48.3008 23.5201 48.3197 23.6215 48.3197C23.9494 48.3197 24.2595 48.1228 24.3881 47.7996L24.571 47.3398C24.7393 46.9166 24.5327 46.437 24.1094 46.2686Z" fill="white"/>
        <path d="M25.5344 42.6875C25.1111 42.5192 24.6317 42.7258 24.4632 43.1491L24.2803 43.6089C24.1119 44.0321 24.3186 44.5117 24.7419 44.68C24.8419 44.7198 24.945 44.7386 25.0465 44.7386C25.3744 44.7386 25.6844 44.5417 25.813 44.2185L25.9959 43.7588C26.1641 43.3354 25.9575 42.856 25.5344 42.6875Z" fill="white"/>
        <path d="M49.7732 32.2373H40.8179C40.3625 32.2373 39.9932 32.6065 39.9932 33.0621V36.8559C39.9932 37.3114 40.3625 37.6807 40.8179 37.6807H49.7732C50.2286 37.6807 50.598 37.3114 50.598 36.8559V33.0621C50.598 32.6065 50.2286 32.2373 49.7732 32.2373ZM48.9485 36.0311H41.6427V33.8868H48.9485V36.0311Z" fill="white"/>
        <path d="M30.0825 30.8966H31.6495C32.1049 30.8966 32.4743 30.5274 32.4743 30.0718C32.4743 29.6164 32.105 29.2471 31.6495 29.2471H30.0825C29.6271 29.2471 29.2578 29.6163 29.2578 30.0718C29.2578 30.5274 29.627 30.8966 30.0825 30.8966Z" fill="white"/>
    </g>
    <defs>
        <linearGradient id="paint0_linear" x1="18.5393" y1="76.1858" x2="77.4188" y2="10.384" gradientUnits="userSpaceOnUse">
            <stop stop-color="#E06314"/>
            <stop offset="1" stop-color="#F4AA42"/>
        </linearGradient>
        <linearGradient id="paint1_linear" x1="15.0842" y1="77.6666" x2="71.1501" y2="10.4828" gradientUnits="userSpaceOnUse">
            <stop stop-color="#E06314"/>
            <stop offset="1" stop-color="#F4AA42"/>
        </linearGradient>
        <linearGradient id="paint2_linear" x1="16.11" y1="74.9492" x2="67.9125" y2="13.6404" gradientUnits="userSpaceOnUse">
            <stop stop-color="#E06314"/>
            <stop offset="1" stop-color="#F4AA42"/>
        </linearGradient>
        <clipPath id="clip0">
            <rect width="40" height="40" fill="white" transform="translate(18 19)"/>
        </clipPath>
    </defs>
</svg>
