<svg width="80" height="80" viewBox="0 0 80 80" fill="none" xmlns="http://www.w3.org/2000/svg">
    <path opacity="0.2" fill-rule="evenodd" clip-rule="evenodd" d="M42.4774 0.427895C50.1689 1.78453 55.1771 8.65994 61.1464 13.7479C66.5948 18.3918 72.6815 22.2949 75.7574 28.7939C79.1461 35.9539 81.2813 44.1332 79.1418 51.7702C76.9637 59.5446 70.6924 65.241 64.2189 69.9799C57.7545 74.7122 50.4582 78.6833 42.4774 78.6105C34.5364 78.538 26.6803 75.2161 21.0192 69.5856C15.7817 64.3766 15.8437 56.2659 13.0878 49.3804C10.032 41.7452 3.00763 35.2642 4.01119 27.0903C5.07051 18.4622 11.2958 11.1225 18.3886 6.2062C25.3658 1.37004 34.1437 -1.042 42.4774 0.427895Z" fill="url(#paint0_linear)"/>
    <path opacity="0.2" fill-rule="evenodd" clip-rule="evenodd" d="M39.0656 4.74031C46.7794 5.41081 53.8233 8.32557 60.3999 12.4556C67.4694 16.8952 76.3061 21.0965 78.1682 29.2965C80.0187 37.4456 72.9945 44.5734 69.4036 52.1053C66.3838 58.4394 64.0378 64.9963 58.8923 69.7274C53.2607 74.9054 46.6782 79.984 39.0656 79.9998C31.4476 80.0156 24.8833 74.9148 19.1796 69.8097C13.9235 65.1051 11.1345 58.7147 8.12286 52.304C4.59923 44.8034 -1.08626 37.572 0.180779 29.368C1.51677 20.7175 7.54874 13.148 14.888 8.49962C21.9712 4.01349 30.7378 4.01643 39.0656 4.74031Z" fill="url(#paint1_linear)"/>
    <path opacity="0.9" fill-rule="evenodd" clip-rule="evenodd" d="M39.4685 8.8437C47.6146 8.21284 56.5472 5.36025 63.3544 9.92763C70.2168 14.532 73.3547 23.5708 73.8089 31.8848C74.2101 39.2286 69.271 45.3891 65.6399 51.7625C62.7888 56.7669 59.5743 61.3205 55.0386 64.8314C50.3946 68.4259 45.1077 70.4514 39.4685 72.0201C31.6847 74.1854 23.1312 79.7006 16.1176 75.6586C9.17353 71.6566 9.8805 61.3796 7.57799 53.6412C5.33923 46.117 0.884631 38.7397 2.87254 31.1438C4.90134 23.3917 11.308 17.5717 18.1011 13.4322C24.4937 9.53679 32.0263 9.42005 39.4685 8.8437Z" fill="url(#paint2_linear)"/>
    <path fill-rule="evenodd" clip-rule="evenodd" d="M51.128 29.8244C51.1277 29.8158 51.1274 29.8073 51.1268 29.7988C51.1244 29.7649 51.121 29.7316 51.1143 29.6987C51.1143 29.6987 51.1143 29.6987 51.1143 29.6983C51.1076 29.6654 51.0981 29.6327 51.0874 29.601C51.0847 29.5931 51.082 29.5851 51.0789 29.5772C51.0676 29.547 51.0548 29.5174 51.0401 29.4887C51.0392 29.4872 51.0386 29.4856 51.0377 29.4841C51.0218 29.4542 51.0035 29.4258 50.9837 29.3981C50.9788 29.391 50.9736 29.3843 50.9684 29.3773C50.9474 29.3498 50.9254 29.3233 50.9007 29.2986L43.831 22.2289C43.8063 22.2042 43.7797 22.1822 43.7523 22.1611C43.7452 22.1559 43.7382 22.1505 43.7312 22.1456C43.7034 22.1257 43.6753 22.1074 43.6457 22.0919C43.6436 22.0906 43.6415 22.09 43.6396 22.0888C43.6116 22.0742 43.5823 22.0616 43.5527 22.0504C43.5444 22.0473 43.5365 22.0446 43.5279 22.0418C43.4962 22.0311 43.4642 22.0217 43.4309 22.015C43.4306 22.015 43.4303 22.015 43.4303 22.015C43.3976 22.0085 43.3644 22.0049 43.3308 22.0024C43.3223 22.0021 43.3137 22.0015 43.3052 22.0012C43.2963 22.0009 43.2875 22 43.2786 22H25.5782C25.1466 22 24.7969 22.3497 24.7969 22.7812V56.2205C24.7969 56.652 25.1466 57.0018 25.5782 57.0018H37.3402V61.2187C37.3402 61.5028 37.4946 61.7646 37.7434 61.9023C37.9924 62.0399 38.296 62.0317 38.5368 61.8806L41.5123 60.0138L44.4877 61.8806C44.6144 61.9599 44.7587 61.9999 44.9031 61.9999C45.0331 61.9999 45.1634 61.9676 45.2812 61.9026C45.5299 61.7649 45.6843 61.5031 45.6843 61.2187V57.0018H50.348C50.7795 57.0018 51.1293 56.652 51.1293 56.2205V29.8509C51.1293 29.8421 51.1283 29.8332 51.128 29.8244ZM44.0599 24.6675L48.462 29.0697H44.0599V24.6675ZM36.9548 46.1305C36.8998 45.9813 36.8104 45.7374 36.8083 45.6376C36.8693 45.562 37.0811 45.428 37.2108 45.3462C37.4891 45.1704 37.8047 44.9708 38.0336 44.659C38.2646 44.3437 38.3586 43.9796 38.4416 43.6586C38.4779 43.5182 38.5365 43.2915 38.5866 43.2057C38.614 43.1999 38.6717 43.1917 38.78 43.1917C38.867 43.1917 38.9644 43.1966 39.0675 43.2017C39.1859 43.2075 39.308 43.2136 39.4355 43.2136C39.7169 43.2136 39.944 43.1819 40.15 43.1132C40.5098 42.9936 40.7975 42.762 41.0515 42.5575C41.1918 42.4446 41.4268 42.2554 41.5086 42.2438C41.598 42.2554 41.8327 42.4446 41.9731 42.5575C42.227 42.762 42.5151 42.9936 42.8749 43.1132C43.0809 43.1819 43.3076 43.2136 43.5893 43.2136C43.7165 43.2136 43.8389 43.2075 43.957 43.2017C44.0602 43.1966 44.1575 43.1917 44.2448 43.1917C44.3531 43.1917 44.4105 43.1996 44.4383 43.2057C44.4883 43.2915 44.5469 43.5182 44.5829 43.6586C44.6659 43.9796 44.7602 44.3437 44.9913 44.659C45.2198 44.9708 45.5354 45.1701 45.814 45.3462C45.9434 45.4283 46.1552 45.562 46.2162 45.6376C46.2141 45.7374 46.1247 45.9813 46.0701 46.1305C45.9538 46.447 45.8223 46.8059 45.8223 47.2035C45.8223 47.6011 45.9538 47.96 46.0698 48.2768C46.1247 48.426 46.2141 48.6699 46.2162 48.7697C46.1552 48.8453 45.9434 48.979 45.814 49.0611C45.5354 49.2369 45.2198 49.4365 44.9913 49.7484C44.7602 50.0636 44.6659 50.4277 44.5829 50.7487C44.5469 50.8888 44.488 51.1158 44.4383 51.2016C44.4105 51.2074 44.3531 51.2156 44.2448 51.2156C44.1575 51.2156 44.0602 51.2108 43.957 51.2056C43.8389 51.1998 43.7165 51.1937 43.5893 51.1937C43.3076 51.1937 43.0809 51.2254 42.8749 51.2941C42.5151 51.4137 42.227 51.6456 41.9731 51.8498C41.8348 51.9615 41.6041 52.1467 41.5123 52.1632C41.4204 52.1467 41.19 51.9615 41.0518 51.8498C40.7975 51.6456 40.5098 51.4137 40.15 51.2941C39.944 51.2254 39.7169 51.1937 39.4355 51.1937C39.3083 51.1937 39.1859 51.1998 39.0675 51.2056C38.9647 51.2108 38.8673 51.2156 38.78 51.2156C38.6717 51.2156 38.6143 51.2074 38.5866 51.2016C38.5365 51.1158 38.4779 50.8891 38.4416 50.7487C38.3589 50.4277 38.2646 50.0636 38.0336 49.7484C37.805 49.4365 37.4894 49.2369 37.2108 49.0611C37.0814 48.9793 36.8696 48.8453 36.8086 48.7697C36.8107 48.6702 36.9002 48.426 36.9548 48.2768C37.0711 47.9603 37.2026 47.6014 37.2026 47.2038C37.2026 46.8059 37.0707 46.447 36.9548 46.1305ZM44.1218 59.8063L41.9276 58.4297C41.6737 58.2707 41.3508 58.2707 41.0969 58.4297L38.9027 59.8063V52.7757C38.9857 52.7733 39.0672 52.7702 39.1462 52.7662C39.2497 52.7607 39.3474 52.7559 39.4355 52.7559C39.5741 52.7559 39.6333 52.7687 39.6562 52.7763C39.7493 52.8074 39.9281 52.9515 40.0718 53.0671C40.4365 53.3607 40.8903 53.726 41.5123 53.726C42.1342 53.726 42.588 53.3607 42.9527 53.0671C43.0964 52.9515 43.2753 52.8074 43.368 52.7766C43.3912 52.769 43.4504 52.7562 43.589 52.7562C43.6772 52.7562 43.7748 52.761 43.8783 52.7662C43.9573 52.7702 44.0388 52.7736 44.1215 52.7757V59.8063H44.1218ZM45.6843 55.4393V52.1461C45.9166 51.8306 46.0136 51.457 46.0957 51.1397C46.1387 50.973 46.1976 50.7451 46.2513 50.6721C46.3047 50.5989 46.5034 50.4735 46.6484 50.3819C47.0329 50.139 47.5114 49.8366 47.7015 49.2647C47.8895 48.7004 47.6939 48.1672 47.5367 47.7388C47.4653 47.5444 47.3844 47.3237 47.3844 47.2035C47.3844 47.0833 47.4653 46.8629 47.5367 46.6685C47.6939 46.2401 47.8895 45.7066 47.7015 45.1423C47.5114 44.5708 47.0329 44.2683 46.6484 44.0254C46.5034 43.9339 46.3047 43.8081 46.2513 43.7355C46.1976 43.6622 46.1387 43.4343 46.0957 43.2677C45.9834 42.8328 45.8436 42.2914 45.3651 41.9405C44.9842 41.6615 44.5433 41.6292 44.2445 41.6292C44.1182 41.6292 43.9961 41.6353 43.8783 41.6414C43.7748 41.6466 43.6772 41.6514 43.5893 41.6514C43.4504 41.6514 43.3912 41.6386 43.3683 41.631C43.2756 41.6002 43.0967 41.4561 42.953 41.3402C42.588 41.0469 42.1342 40.6816 41.5123 40.6816C40.8906 40.6816 40.4365 41.0469 40.0718 41.3402C39.9281 41.4558 39.7493 41.6002 39.6565 41.631C39.6336 41.6386 39.5741 41.6514 39.4355 41.6514C39.3477 41.6514 39.2497 41.6466 39.1462 41.6411C39.0284 41.6353 38.9067 41.6292 38.78 41.6292C38.4816 41.6292 38.0406 41.6615 37.66 41.9405C37.1812 42.2914 37.0411 42.8328 36.9288 43.2677C36.8858 43.4343 36.8269 43.6622 36.7735 43.7352C36.7198 43.8081 36.5211 43.9339 36.3762 44.0254C35.9916 44.2683 35.5134 44.5708 35.323 45.1423C35.135 45.7069 35.3306 46.2401 35.4878 46.6685C35.5592 46.8629 35.6401 47.0833 35.6401 47.2035C35.6401 47.3237 35.5592 47.5444 35.4878 47.7388C35.3306 48.1672 35.135 48.7004 35.323 49.265C35.5134 49.8366 35.992 50.139 36.3762 50.3819C36.5214 50.4735 36.7198 50.5992 36.7735 50.6721C36.8269 50.7451 36.8858 50.973 36.9288 51.1397C37.0109 51.457 37.1083 51.8309 37.3405 52.1461V55.4393H26.3594V23.5625H42.4974V29.8509C42.4974 30.2825 42.8471 30.6322 43.2786 30.6322H49.5668V55.4393H45.6843Z" fill="white"/>
    <path fill-rule="evenodd" clip-rule="evenodd" d="M29.3956 30.6323H39.4609C39.8921 30.6323 40.2422 30.2826 40.2422 29.8511C40.2422 29.4196 39.8921 29.0698 39.4609 29.0698H29.3956C28.9641 29.0698 28.6143 29.4196 28.6143 29.8511C28.6143 30.2826 28.9644 30.6323 29.3956 30.6323Z" fill="white"/>
    <path fill-rule="evenodd" clip-rule="evenodd" d="M46.6179 33.0132H29.3956C28.9641 33.0132 28.6143 33.3629 28.6143 33.7944C28.6143 34.226 28.9641 34.5757 29.3956 34.5757H46.6179C47.0494 34.5757 47.3991 34.226 47.3991 33.7944C47.3991 33.3629 47.0494 33.0132 46.6179 33.0132Z" fill="white"/>
    <path fill-rule="evenodd" clip-rule="evenodd" d="M43.4929 36.9565H29.3956C28.9641 36.9565 28.6143 37.3066 28.6143 37.7378C28.6143 38.1693 28.9641 38.519 29.3956 38.519H43.4929C43.9244 38.519 44.2741 38.1693 44.2741 37.7378C44.2741 37.3066 43.9244 36.9565 43.4929 36.9565Z" fill="white"/>
    <path fill-rule="evenodd" clip-rule="evenodd" d="M46.6179 36.9565C46.1876 36.9565 45.8366 37.3075 45.8366 37.7378C45.8366 38.1681 46.1876 38.519 46.6179 38.519C47.0485 38.519 47.3991 38.1681 47.3991 37.7378C47.3991 37.3075 47.0485 36.9565 46.6179 36.9565Z" fill="white"/>
    <defs>
        <linearGradient id="paint0_linear" x1="18.5393" y1="76.1858" x2="77.4188" y2="10.384" gradientUnits="userSpaceOnUse">
            <stop stop-color="#E06314"/>
            <stop offset="1" stop-color="#F4AA42"/>
        </linearGradient>
        <linearGradient id="paint1_linear" x1="15.0842" y1="77.6666" x2="71.1501" y2="10.4828" gradientUnits="userSpaceOnUse">
            <stop stop-color="#E06314"/>
            <stop offset="1" stop-color="#F4AA42"/>
        </linearGradient>
        <linearGradient id="paint2_linear" x1="16.11" y1="74.9492" x2="67.9125" y2="13.6404" gradientUnits="userSpaceOnUse">
            <stop stop-color="#E06314"/>
            <stop offset="1" stop-color="#F4AA42"/>
        </linearGradient>
    </defs>
</svg>
