<svg width="80" height="80" viewBox="0 0 80 80" fill="none" xmlns="http://www.w3.org/2000/svg">
    <path opacity="0.2" fill-rule="evenodd" clip-rule="evenodd" d="M42.4774 0.427895C50.1689 1.78453 55.1771 8.65994 61.1464 13.7479C66.5948 18.3918 72.6815 22.2949 75.7574 28.7939C79.1461 35.9539 81.2813 44.1332 79.1418 51.7702C76.9637 59.5446 70.6924 65.241 64.2189 69.9799C57.7545 74.7122 50.4582 78.6833 42.4774 78.6105C34.5364 78.538 26.6803 75.2161 21.0192 69.5856C15.7817 64.3766 15.8437 56.2659 13.0878 49.3804C10.032 41.7452 3.00763 35.2642 4.01119 27.0903C5.07051 18.4622 11.2958 11.1225 18.3886 6.2062C25.3658 1.37004 34.1437 -1.042 42.4774 0.427895Z" fill="url(#paint0_linear)"/>
    <path opacity="0.2" fill-rule="evenodd" clip-rule="evenodd" d="M39.0656 4.74031C46.7794 5.41081 53.8233 8.32557 60.3999 12.4556C67.4694 16.8952 76.3061 21.0965 78.1682 29.2965C80.0187 37.4456 72.9945 44.5734 69.4036 52.1053C66.3838 58.4394 64.0378 64.9963 58.8923 69.7274C53.2607 74.9054 46.6782 79.984 39.0656 79.9998C31.4476 80.0156 24.8833 74.9148 19.1796 69.8097C13.9235 65.1051 11.1345 58.7147 8.12286 52.304C4.59923 44.8034 -1.08626 37.572 0.180779 29.368C1.51677 20.7175 7.54874 13.148 14.888 8.49962C21.9712 4.01349 30.7378 4.01643 39.0656 4.74031Z" fill="url(#paint1_linear)"/>
    <path opacity="0.9" fill-rule="evenodd" clip-rule="evenodd" d="M39.4685 8.8437C47.6146 8.21284 56.5472 5.36025 63.3544 9.92763C70.2168 14.532 73.3547 23.5708 73.8089 31.8848C74.2101 39.2286 69.271 45.3891 65.6399 51.7625C62.7888 56.7669 59.5743 61.3205 55.0386 64.8314C50.3946 68.4259 45.1077 70.4514 39.4685 72.0201C31.6847 74.1854 23.1312 79.7006 16.1176 75.6586C9.17353 71.6566 9.8805 61.3796 7.57799 53.6412C5.33923 46.117 0.884631 38.7397 2.87254 31.1438C4.90134 23.3917 11.308 17.5717 18.1011 13.4322C24.4937 9.53679 32.0263 9.42005 39.4685 8.8437Z" fill="url(#paint2_linear)"/>
    <path d="M42.125 57.3125C41.6937 57.3125 41.3438 57.6625 41.3438 58.0938C41.3438 58.525 41.6937 58.875 42.125 58.875C42.5562 58.875 42.9062 58.525 42.9062 58.0938C42.9062 57.6625 42.5562 57.3125 42.125 57.3125Z" fill="white"/>
    <path d="M53.0625 25.5938H50.7188V24.3438C50.7188 23.0514 49.6673 22 48.375 22H29.625C28.3327 22 27.2812 23.0514 27.2812 24.3438V25.5938H24.9375C23.6452 25.5938 22.5938 26.6452 22.5938 27.9375C22.5938 33.0201 24.972 36.7552 28.8303 37.7952C30.153 40.7065 32.2442 43.1814 34.8986 44.9698C35.51 45.3817 35.875 46.087 35.875 46.8563V51.1609C35.3395 51.2982 34.8481 51.5766 34.4468 51.978C33.8564 52.5685 33.5312 53.3531 33.5312 54.1875H32.75C31.4577 54.1875 30.4062 55.2389 30.4062 56.5312V61.2188C30.4062 61.6502 30.7561 62 31.1875 62H46.8125C47.2439 62 47.5938 61.6502 47.5938 61.2188V56.5312C47.5938 55.2389 46.5423 54.1875 45.25 54.1875H44.4688C44.4688 52.7341 43.4713 51.5091 42.125 51.1614V46.8602C42.125 46.0884 42.4902 45.3818 43.1022 44.9698C45.7568 43.1813 47.848 40.7063 49.1706 37.7949C53.0284 36.7546 55.4062 33.0197 55.4062 27.9375C55.4062 26.6452 54.3548 25.5938 53.0625 25.5938ZM24.1562 27.9375C24.1562 27.5067 24.5067 27.1562 24.9375 27.1562H27.2812V30.6484C27.2812 32.4293 27.551 34.1732 28.0836 35.8527C25.5974 34.6212 24.1562 31.777 24.1562 27.9375ZM45.25 55.75C45.6808 55.75 46.0312 56.1005 46.0312 56.5312V60.4375H31.9688V56.5312C31.9688 56.1005 32.3192 55.75 32.75 55.75H45.25ZM49.1562 30.6484C49.1562 32.7825 48.7314 34.8591 47.8933 36.8203C46.7011 39.6107 44.7425 41.9806 42.2294 43.6738C41.1856 44.3764 40.5625 45.5676 40.5625 46.8602V51.8438C40.5625 52.2752 40.9123 52.625 41.3438 52.625C42.2053 52.625 42.9062 53.3259 42.9062 54.1875H35.0938C35.0938 53.7705 35.2564 53.3782 35.5516 53.0829C35.8324 52.8021 36.2009 52.6413 36.595 52.6262C36.6152 52.6277 36.6356 52.6285 36.6562 52.6285C37.0876 52.6285 37.4374 52.2752 37.4374 51.8438V46.8563C37.4374 45.5664 36.8147 44.3768 35.7716 43.674C33.2583 41.9807 31.2997 39.6108 30.1073 36.8202C29.2689 34.8596 28.8438 32.7831 28.8438 30.6484V24.3438C28.8438 23.913 29.1942 23.5625 29.625 23.5625H48.375C48.8058 23.5625 49.1562 23.913 49.1562 24.3438V30.6484ZM49.9167 35.8525C50.4491 34.1727 50.7188 32.4288 50.7188 30.6484V27.1562H53.0625C53.4933 27.1562 53.8438 27.5067 53.8438 27.9375C53.8438 31.7768 52.4027 34.6209 49.9167 35.8525Z" fill="white"/>
    <path d="M45.1828 31.2313C45.091 30.9484 44.8465 30.7422 44.5521 30.6995L41.1805 30.2102L39.6725 27.1543C39.5408 26.8876 39.2693 26.7188 38.9718 26.7188C38.6744 26.7188 38.4029 26.8876 38.2712 27.1543L36.7632 30.2102L33.3917 30.6995C33.0973 30.7423 32.8529 30.9484 32.7609 31.2313C32.669 31.5141 32.7457 31.8246 32.9586 32.0322L35.3988 34.4103L34.8229 37.7687C34.7726 38.0618 34.8931 38.358 35.1337 38.5328C35.3743 38.7076 35.6933 38.7306 35.9564 38.5923L38.9719 37.0069L41.9881 38.5923C42.2529 38.7315 42.5718 38.7065 42.8108 38.5327C43.0514 38.3579 43.1718 38.0616 43.1215 37.7685L42.545 34.4102L44.985 32.0322C45.1981 31.8246 45.2747 31.5141 45.1828 31.2313ZM41.1602 33.578C40.9761 33.7575 40.8919 34.0162 40.9355 34.2697L41.3137 36.4726L39.3354 35.4327C39.1076 35.313 38.8357 35.313 38.6083 35.4327L36.6306 36.4726L37.0084 34.2695C37.0518 34.016 36.9678 33.7574 36.7836 33.578L35.1833 32.0183L37.3943 31.6973C37.6489 31.6604 37.8689 31.5005 37.9827 31.2699L38.9719 29.2653L39.9611 31.2699C40.075 31.5005 40.295 31.6604 40.5495 31.6973L42.7606 32.0183L41.1602 33.578Z" fill="white"/>
    <path d="M39 57.3125H35.875C35.4436 57.3125 35.0938 57.6623 35.0938 58.0938C35.0938 58.5252 35.4436 58.875 35.875 58.875H39C39.4314 58.875 39.7812 58.5252 39.7812 58.0938C39.7812 57.6623 39.4314 57.3125 39 57.3125Z" fill="white"/>
    <path d="M51.032 59.6562H51.4676C51.2457 59.6122 51.0965 59.6079 51.032 59.6562Z" fill="white"/>
    <defs>
        <linearGradient id="paint0_linear" x1="18.5393" y1="76.1858" x2="77.4188" y2="10.384" gradientUnits="userSpaceOnUse">
            <stop stop-color="#E06314"/>
            <stop offset="1" stop-color="#F4AA42"/>
        </linearGradient>
        <linearGradient id="paint1_linear" x1="15.0842" y1="77.6666" x2="71.1501" y2="10.4828" gradientUnits="userSpaceOnUse">
            <stop stop-color="#E06314"/>
            <stop offset="1" stop-color="#F4AA42"/>
        </linearGradient>
        <linearGradient id="paint2_linear" x1="16.11" y1="74.9492" x2="67.9125" y2="13.6404" gradientUnits="userSpaceOnUse">
            <stop stop-color="#E06314"/>
            <stop offset="1" stop-color="#F4AA42"/>
        </linearGradient>
    </defs>
</svg>
