<svg width="80" height="80" viewBox="0 0 80 80" fill="none" xmlns="http://www.w3.org/2000/svg">
    <path opacity="0.2" fill-rule="evenodd" clip-rule="evenodd" d="M42.4774 0.427895C50.1689 1.78453 55.1771 8.65994 61.1464 13.7479C66.5948 18.3918 72.6815 22.2949 75.7574 28.7939C79.1461 35.9539 81.2813 44.1332 79.1418 51.7702C76.9637 59.5446 70.6924 65.241 64.2189 69.9799C57.7545 74.7122 50.4582 78.6833 42.4774 78.6105C34.5364 78.538 26.6803 75.2161 21.0192 69.5856C15.7817 64.3766 15.8437 56.2659 13.0878 49.3804C10.032 41.7452 3.00763 35.2642 4.01119 27.0903C5.07051 18.4622 11.2958 11.1225 18.3886 6.2062C25.3658 1.37004 34.1437 -1.042 42.4774 0.427895Z" fill="url(#paint0_linear)"/>
    <path opacity="0.2" fill-rule="evenodd" clip-rule="evenodd" d="M39.0656 4.74031C46.7794 5.41081 53.8233 8.32557 60.3999 12.4556C67.4694 16.8952 76.3061 21.0965 78.1682 29.2965C80.0187 37.4456 72.9945 44.5734 69.4036 52.1053C66.3838 58.4394 64.0378 64.9963 58.8923 69.7274C53.2607 74.9054 46.6782 79.984 39.0656 79.9998C31.4476 80.0156 24.8833 74.9148 19.1796 69.8097C13.9235 65.1051 11.1345 58.7147 8.12286 52.304C4.59923 44.8034 -1.08626 37.572 0.180779 29.368C1.51677 20.7175 7.54874 13.148 14.888 8.49962C21.9712 4.01349 30.7378 4.01643 39.0656 4.74031Z" fill="url(#paint1_linear)"/>
    <path opacity="0.9" fill-rule="evenodd" clip-rule="evenodd" d="M39.4685 8.8437C47.6146 8.21284 56.5472 5.36025 63.3544 9.92763C70.2168 14.532 73.3547 23.5708 73.8089 31.8848C74.2101 39.2286 69.271 45.3891 65.6399 51.7625C62.7888 56.7669 59.5743 61.3205 55.0386 64.8314C50.3946 68.4259 45.1077 70.4514 39.4685 72.0201C31.6847 74.1854 23.1312 79.7006 16.1176 75.6586C9.17353 71.6566 9.8805 61.3796 7.57799 53.6412C5.33923 46.117 0.884631 38.7397 2.87254 31.1438C4.90134 23.3917 11.308 17.5717 18.1011 13.4322C24.4937 9.53679 32.0263 9.42005 39.4685 8.8437Z" fill="url(#paint2_linear)"/>
    <path d="M60.3333 39.3374C59.3823 39.3659 58.6346 40.16 58.6632 41.111C58.6638 41.134 58.665 41.157 58.6667 41.18V41.3374H57.5107C56.6908 38.0098 54.861 35.0175 52.2727 32.7714C53.8078 27.4704 50.7549 21.9286 45.4539 20.3935C40.1529 18.8584 34.6112 21.9113 33.0761 27.2123C32.9576 27.6214 32.8654 28.0378 32.8 28.4587C29.72 27.5954 27.1047 27.6587 25.716 28.6674C25.0545 29.1188 24.6612 29.8699 24.6667 30.6707C24.6667 32.546 25.8047 34.3634 26.6627 35.4707C25.9391 36.6719 25.4011 37.9755 25.0667 39.3374H24.6667C23.1939 39.3374 22 40.5313 22 42.004V46.004C22 47.4768 23.1939 48.6707 24.6667 48.6707H25.698C26.7467 50.7519 28.5108 52.3852 30.6667 53.2707V56.004C30.6667 56.3722 30.9652 56.6707 31.3333 56.6707H34V57.3374C34 57.7055 34.2985 58.004 34.6667 58.004H40C40.3682 58.004 40.6667 57.7055 40.6667 57.3374V54.004H42.6667V56.004C42.6667 56.3722 42.9652 56.6707 43.3333 56.6707H46V57.3374C46 57.7055 46.2985 58.004 46.6667 58.004H52C52.3682 58.004 52.6667 57.7055 52.6667 57.3374V53.3374C55.8332 52.038 57.9277 48.9847 58 45.5627C58.0116 44.5944 57.9398 43.6268 57.7853 42.6707H58.6667V44.004H60V42.6707H60.3333C61.2538 42.6707 62 41.9245 62 41.004C62 40.0835 61.2538 39.3374 60.3333 39.3374ZM36.6585 23.7555C38.2733 22.2029 40.4266 21.3363 42.6667 21.3374C47.4509 21.335 51.3312 25.2116 51.3335 29.9959C51.3346 32.2359 50.4679 34.3893 48.9153 36.004H46.87C50.1894 33.6835 50.9992 29.1114 48.6787 25.792C46.3582 22.4726 41.7861 21.6629 38.4667 23.9834C35.1473 26.3039 34.3375 30.8759 36.658 34.1954C37.1503 34.8995 37.7625 35.5117 38.4667 36.004H36.418C33.1021 32.5553 33.2098 27.0714 36.6585 23.7555ZM42.6667 36.004C39.353 36.004 36.6667 33.3177 36.6667 30.004C36.6667 26.6903 39.353 24.004 42.6667 24.004C45.9804 24.004 48.6667 26.6903 48.6667 30.004C48.6627 33.316 45.9787 35.9999 42.6667 36.004ZM26 30.6707C25.9973 30.2972 26.1857 29.9482 26.4993 29.7454C27.2284 29.3157 28.0703 29.1164 28.9147 29.1734C30.1923 29.2067 31.4588 29.4204 32.6767 29.808C32.6767 29.8747 32.6667 29.9414 32.6667 30.004V30.024C30.6058 31.0005 28.8142 32.4651 27.4473 34.2907C26.6229 33.2505 26.1199 31.9924 26 30.6707ZM34 55.3374H32V53.7107C32.6548 53.8749 33.3253 53.9692 34 53.992V55.3374ZM46 55.3374H44V54.004H46V55.3374ZM56.6667 45.5454C56.6091 48.2323 55.0695 50.6668 52.6667 51.8707V51.3374H51.3333V56.6707H47.3333V50.6707H46V52.6707H40.6667V51.3374H39.3333V56.6707H35.3333V50.6707H34V52.6587C30.8379 52.5284 28.0217 50.6204 26.728 47.732C26.6207 47.4919 26.3823 47.3374 26.1193 47.3374H24.6667C23.9303 47.3374 23.3333 46.7404 23.3333 46.004V42.004C23.3333 41.2676 23.9303 40.6707 24.6667 40.6707H25.6C25.9168 40.6708 26.19 40.4478 26.2533 40.1374C26.5664 38.6009 27.1633 37.1363 28.0133 35.8187C28.0213 35.8074 28.0347 35.8027 28.042 35.7914C29.2238 33.9637 30.8565 32.4714 32.7827 31.458C33.0212 33.1099 33.6754 34.6742 34.684 36.004H33.3333V37.3374H52V36.004H50.6493C51.0948 35.4174 51.4733 34.7827 51.778 34.112C54.9548 37.0577 56.7318 41.2135 56.6667 45.5454ZM60.3333 41.3374H60V41.18C60 40.934 60.0873 40.6707 60.3333 40.6707C60.5174 40.6707 60.6667 40.8199 60.6667 41.004C60.6667 41.1881 60.5174 41.3374 60.3333 41.3374Z" fill="white"/>
    <path d="M44.5807 30.867C44.427 30.3729 44.078 29.9631 43.6147 29.7326L42.3153 29.0832C42.0337 28.9435 41.9187 28.6018 42.0584 28.3202C42.1547 28.1262 42.3527 28.0036 42.5693 28.0039H42.764C43.0782 28.0042 43.333 28.259 43.3333 28.5732V28.6706H44.6667V28.5732C44.6636 27.7449 44.1241 27.0141 43.3333 26.7672V26.0039H42V26.7672C41.0001 27.0782 40.4417 28.1409 40.7527 29.1408C40.9063 29.6349 41.2553 30.0447 41.7187 30.2752L43.018 30.9246C43.2997 31.0643 43.4147 31.406 43.2749 31.6877C43.1787 31.8817 42.9806 32.0043 42.764 32.0039H42.5693C42.2551 32.0036 42.0003 31.7488 42 31.4346V31.3372H40.6667V31.4346C40.6697 32.2629 41.2092 32.9937 42 33.2406V34.0039H43.3333V33.2406C44.3333 32.9296 44.8917 31.8668 44.5807 30.867Z" fill="white"/>
    <path d="M26 42.0039H24.6667V43.3372H26V42.0039Z" fill="white"/>
    <path d="M39.3333 29.3369H38V30.6703H39.3333V29.3369Z" fill="white"/>
    <path d="M47.3333 29.3369H46V30.6703H47.3333V29.3369Z" fill="white"/>
    <path d="M30.6667 37.3369H29.3333V38.6702H30.6667V37.3369Z" fill="white"/>
    <defs>
        <linearGradient id="paint0_linear" x1="18.5393" y1="76.1858" x2="77.4188" y2="10.384" gradientUnits="userSpaceOnUse">
            <stop stop-color="#E06314"/>
            <stop offset="1" stop-color="#F4AA42"/>
        </linearGradient>
        <linearGradient id="paint1_linear" x1="15.0842" y1="77.6666" x2="71.1501" y2="10.4828" gradientUnits="userSpaceOnUse">
            <stop stop-color="#E06314"/>
            <stop offset="1" stop-color="#F4AA42"/>
        </linearGradient>
        <linearGradient id="paint2_linear" x1="16.11" y1="74.9492" x2="67.9125" y2="13.6404" gradientUnits="userSpaceOnUse">
            <stop stop-color="#E06314"/>
            <stop offset="1" stop-color="#F4AA42"/>
        </linearGradient>
    </defs>
</svg>
