<svg width="249" height="226" viewBox="0 0 249 226" fill="none" xmlns="http://www.w3.org/2000/svg">
    <path fill-rule="evenodd" clip-rule="evenodd" d="M118.576 0.230465C142.592 2.15659 159.779 21.6715 180.378 34.1643C203.463 48.1653 236.713 52.4765 246.315 77.7028C255.921 102.942 237.536 129.656 226.024 154.085C215.914 175.537 203.981 196.38 184.209 209.485C164.983 222.228 141.471 228.135 118.576 225.303C97.2687 222.668 79.6033 209.081 63.7708 194.587C49.484 181.508 42.4491 163.891 33.0168 146.976C20.7285 124.94 -2.96053 105.794 0.306025 80.7781C3.63041 55.3194 27.8949 38.0945 49.1222 23.6377C69.8192 9.54201 93.6113 -1.77167 118.576 0.230465Z" fill="#F5F5F5"/>
</svg>
