<svg width="75" height="76" viewBox="0 0 75 76" fill="none" xmlns="http://www.w3.org/2000/svg">
    <path fill-rule="evenodd" clip-rule="evenodd" d="M71.841 38.1071C70.1032 44.2885 64.7932 48.3238 60.9156 53.4699C57.1 58.5337 54.7376 64.605 49.3347 67.9757C42.8012 72.0518 34.8383 76.98 27.6265 74.2383C20.3978 71.4901 20.3392 61.3237 15.7072 55.1913C10.9789 48.9316 -0.0186473 45.9096 0.33499 38.1071C0.692522 30.2187 12.5359 28.5073 17.207 22.0995C21.9129 15.6439 20.1085 4.59526 27.3301 1.07492C34.4609 -2.40113 42.4599 3.72105 50.04 6.09426C57.6902 8.48941 67.2571 8.40005 71.7366 14.9779C76.2023 21.5353 73.9817 30.4921 71.841 38.1071Z" fill="url(#paint0_linear)"/>
    <path d="M38.8101 37.5311L45.5405 30.8004C45.7256 30.6152 45.8278 30.368 45.8281 30.1044C45.8281 29.8407 45.7259 29.5932 45.5405 29.4082L44.9507 28.8186C44.7653 28.6328 44.5181 28.5311 44.2542 28.5311C43.9908 28.5311 43.7436 28.6328 43.5582 28.8186L36.8278 35.5488L30.0971 28.8186C29.912 28.6328 29.6646 28.5311 29.4009 28.5311C29.1375 28.5311 28.8901 28.6328 28.705 28.8186L28.1149 29.4082C27.7309 29.7922 27.7309 30.4169 28.1149 30.8004L34.8455 37.5311L28.1149 44.2615C27.9296 44.4471 27.8276 44.6943 27.8276 44.9579C27.8276 45.2214 27.9296 45.4686 28.1149 45.654L28.7049 46.2437C28.89 46.4293 29.1375 46.5311 29.4008 46.5311C29.6645 46.5311 29.9118 46.4293 30.097 46.2437L36.8276 39.5133L43.558 46.2437C43.7434 46.4293 43.9906 46.5311 44.2541 46.5311H44.2544C44.5179 46.5311 44.7651 46.4293 44.9505 46.2437L45.5403 45.654C45.7255 45.4688 45.8276 45.2214 45.8276 44.9579C45.8276 44.6943 45.7255 44.4471 45.5403 44.2617L38.8101 37.5311Z" fill="white"/>
    <defs>
        <linearGradient id="paint0_linear" x1="2.61004" y1="14.4477" x2="67.0753" y2="69.5337" gradientUnits="userSpaceOnUse">
            <stop stop-color="#E06314"/>
            <stop offset="1" stop-color="#F4AA42"/>
        </linearGradient>
    </defs>
</svg>