<svg width="1440" height="2385" viewBox="0 0 1440 2385" fill="none" xmlns="http://www.w3.org/2000/svg">
    <path d="M1122.19 499.776C1106.67 383.953 1187.78 277.596 1303.23 262.124C1418.68 246.653 1524.93 327.902 1540.45 443.725C1555.97 559.548 1474.86 665.905 1359.41 681.377C1243.96 696.848 1137.71 615.599 1122.19 499.776Z" stroke="#F5F5F5" stroke-width="50"/>
    <path opacity="0.8" d="M726.5 579C686.598 652.978 604.251 658.722 589.5 745C574.749 831.278 453 804.501 322.5 804.501C192 804.501 97 837 97 837C97 837 -163.496 863.433 -234.273 765.724C-309.619 661.708 -208.982 554.448 -171.962 442.826C-134.942 331.205 -123.467 260.564 -39.1295 184.895C20.6343 131.274 65.4914 115.499 143.598 90.6218C221.705 65.7443 388.125 61.5803 472.658 94.6685C557.191 127.757 631.249 125.395 679 160.001C726.751 194.608 802.866 270.248 791.5 356.002C780.135 441.756 769.562 499.163 726.5 579Z" fill="#F5F5F5" stroke="#F5F5F5"/>
    <path d="M707.341 599.165C699.691 630.01 695.21 647.651 681.561 676.351C658.303 725.257 637.712 750.393 597.415 786.574C478.683 893.176 249.257 861.794 193.471 848.25C137.685 834.707 -22.0312 931.684 -109.014 851.764C-201.611 766.686 -126.007 644.13 -112.288 529.813C-98.5687 415.496 -101.354 345.484 -35.2182 256.419C11.6474 193.305 51.6022 169.412 121.679 130.293C191.755 91.1731 350.603 54.6804 438.164 69.9173C525.725 85.1543 559.949 99.9893 585.632 120.36C611.314 140.731 679.728 199.803 685.57 284.293C691.412 368.784 737.011 479.528 707.341 599.165Z" stroke="#F5F5F5" stroke-width="2"/>
    <path opacity="0.8" d="M763.35 1434.45C834.879 1390.3 909.079 1426.48 964.968 1359.11C1020.86 1291.75 1112.94 1375.78 1225.98 1440.99C1339.02 1506.2 1437.55 1525.52 1437.55 1525.52C1437.55 1525.52 1676.4 1632.79 1688.88 1752.79C1702.17 1880.54 1561.4 1923.16 1473.56 2001.35C1385.72 2079.54 1340.48 2134.99 1229.61 2158.4C1151.05 2174.98 1104.31 2166.23 1024.23 2148.75C944.139 2131.27 797.905 2051.72 741.215 1980.82C684.526 1909.92 619.197 1874.96 595.127 1821.12C571.057 1767.28 542.922 1663.73 595.617 1595.13C648.312 1526.53 686.156 1482.08 763.35 1434.45Z" fill="#F5F5F5" stroke="#F5F5F5"/>
    <path d="M675.011 1607.38C684.13 1576.94 689.451 1559.53 704.459 1531.52C730.032 1483.79 751.804 1459.66 793.788 1425.46C917.49 1324.66 1145.15 1367 1200.22 1383.2C1255.3 1399.4 1419.47 1310.18 1502.53 1394.18C1590.94 1483.59 1509.56 1602.39 1490.38 1715.91C1471.2 1829.44 1470.63 1899.51 1400.3 1985.3C1350.47 2046.1 1309.41 2068.05 1237.54 2103.77C1165.67 2139.49 1005.26 2168.33 918.53 2148.92C831.799 2129.5 798.325 2113.05 773.647 2091.47C748.97 2069.89 683.464 2007.61 681.676 1922.94C679.888 1838.26 639.645 1725.46 675.011 1607.38Z" stroke="#F5F5F5" stroke-width="2"/>
</svg>
