<svg width="22" height="22" viewBox="0 0 22 22" fill="none" xmlns="http://www.w3.org/2000/svg">
    <path fill-rule="evenodd" clip-rule="evenodd" d="M10.4141 1.01947C10.4141 1.0314 10.3229 1.039 10.1797 1.039C10.0365 1.039 9.94531 1.0466 9.94531 1.05853C9.94531 1.06992 9.88021 1.07806 9.78906 1.07806C9.69791 1.07806 9.63281 1.08621 9.63281 1.0976C9.63281 1.10875 9.57422 1.11713 9.49609 1.11713C9.41797 1.11713 9.35938 1.12551 9.35938 1.13666C9.35938 1.1474 9.31543 1.15619 9.26172 1.15619C9.20801 1.15619 9.16406 1.16498 9.16406 1.17572C9.16406 1.18658 9.11197 1.19525 9.04688 1.19525C8.98178 1.19525 8.92969 1.20392 8.92969 1.21478C8.92969 1.22552 8.89453 1.23431 8.85156 1.23431C8.80859 1.23431 8.77344 1.2431 8.77344 1.25385C8.77344 1.26459 8.73828 1.27338 8.69531 1.27338C8.65234 1.27338 8.61719 1.28217 8.61719 1.29291C8.61719 1.30365 8.58203 1.31244 8.53906 1.31244C8.49609 1.31244 8.46094 1.32123 8.46094 1.33197C8.46094 1.34271 8.42578 1.3515 8.38281 1.3515C8.33984 1.3515 8.30469 1.36029 8.30469 1.37103C8.30469 1.38177 8.27832 1.39056 8.24609 1.39056C8.21387 1.39056 8.1875 1.39935 8.1875 1.4101C8.1875 1.42084 8.15234 1.42963 8.10938 1.42963C8.06641 1.42963 8.03125 1.43842 8.03125 1.44916C8.03125 1.4599 8.00488 1.46869 7.97266 1.46869C7.94043 1.46869 7.91406 1.47748 7.91406 1.48822C7.91406 1.49896 7.8877 1.50775 7.85547 1.50775C7.82324 1.50775 7.79688 1.51654 7.79688 1.52728C7.79688 1.53802 7.7793 1.54681 7.75781 1.54681C7.73633 1.54681 7.71875 1.5556 7.71875 1.56635C7.71875 1.57709 7.69238 1.58588 7.66016 1.58588C7.62793 1.58588 7.60156 1.59467 7.60156 1.60541C7.60156 1.61615 7.5752 1.62494 7.54297 1.62494C7.51074 1.62494 7.48438 1.63373 7.48438 1.64447C7.48438 1.65521 7.4668 1.664 7.44531 1.664C7.42383 1.664 7.40625 1.67279 7.40625 1.68353C7.40625 1.69427 7.37988 1.70306 7.34766 1.70306C7.31543 1.70306 7.28906 1.71185 7.28906 1.7226C7.28906 1.73334 7.27148 1.74213 7.25 1.74213C7.22852 1.74213 7.21094 1.75092 7.21094 1.76166C7.21094 1.7724 7.18457 1.78119 7.15234 1.78119C7.12012 1.78119 7.09375 1.78998 7.09375 1.80072C7.09375 1.81146 7.07617 1.82025 7.05469 1.82025C7.0332 1.82025 7.01562 1.82904 7.01562 1.83978C7.01562 1.85052 6.99805 1.85931 6.97656 1.85931C6.95508 1.85931 6.9375 1.8681 6.9375 1.87885C6.9375 1.88959 6.91113 1.89838 6.87891 1.89838C6.84668 1.89838 6.82031 1.90717 6.82031 1.91791C6.82031 1.92865 6.80273 1.93744 6.78125 1.93744C6.75977 1.93744 6.74219 1.94623 6.74219 1.95697C6.74219 1.96771 6.72461 1.9765 6.70312 1.9765C6.68164 1.9765 6.66406 1.98529 6.66406 1.99603C6.66406 2.00677 6.64648 2.01556 6.625 2.01556C6.60352 2.01556 6.58594 2.02435 6.58594 2.0351C6.58594 2.04584 6.56836 2.05463 6.54688 2.05463C6.52539 2.05463 6.50781 2.06342 6.50781 2.07416C6.50781 2.0849 6.49023 2.09369 6.46875 2.09369C6.44727 2.09369 6.42969 2.10248 6.42969 2.11322C6.42969 2.12396 6.41211 2.13275 6.39062 2.13275C6.36914 2.13275 6.35156 2.14154 6.35156 2.15228C6.35156 2.16302 6.33592 2.17181 6.31682 2.17181C6.2977 2.17181 6.26939 2.18939 6.25391 2.21088C6.23842 2.23236 6.21012 2.24994 6.191 2.24994C6.17189 2.24994 6.15625 2.25873 6.15625 2.26947C6.15625 2.28021 6.13867 2.289 6.11719 2.289C6.0957 2.289 6.07812 2.29779 6.07812 2.30853C6.07812 2.31927 6.06248 2.32806 6.04338 2.32806C6.02426 2.32806 5.99596 2.34564 5.98047 2.36713C5.96498 2.38861 5.93668 2.40619 5.91756 2.40619C5.89846 2.40619 5.88281 2.41498 5.88281 2.42572C5.88281 2.43646 5.86717 2.44525 5.84807 2.44525C5.82895 2.44525 5.80064 2.46283 5.78516 2.48431C5.76967 2.5058 5.7433 2.52338 5.72656 2.52338C5.70982 2.52338 5.68346 2.54095 5.66797 2.56244C5.65248 2.58392 5.62418 2.6015 5.60506 2.6015C5.58596 2.6015 5.57031 2.61029 5.57031 2.62103C5.57031 2.63177 5.55467 2.64056 5.53557 2.64056C5.51645 2.64056 5.48814 2.65814 5.47266 2.67963C5.45717 2.70111 5.43238 2.71869 5.41758 2.71869C5.40279 2.71869 5.36603 2.74506 5.33594 2.77728C5.30584 2.80951 5.26908 2.83588 5.2543 2.83588C5.23949 2.83588 5.21471 2.85345 5.19922 2.87494C5.18373 2.89642 5.15895 2.914 5.14414 2.914C5.12936 2.914 5.0926 2.94037 5.0625 2.9726C5.0324 3.00482 4.99742 3.03119 4.98477 3.03119C4.97213 3.03119 4.92801 3.06635 4.88672 3.10931C4.84543 3.15228 4.80148 3.18744 4.78906 3.18744C4.77664 3.18744 4.7327 3.2226 4.69141 3.26556C4.65012 3.30853 4.60639 3.34369 4.5942 3.34369C4.58201 3.34369 4.52029 3.39642 4.45703 3.46088C4.39377 3.52533 4.33268 3.57806 4.32127 3.57806C4.29416 3.57806 3.57812 4.2941 3.57812 4.32121C3.57812 4.33261 3.52539 4.39371 3.46094 4.45697C3.39648 4.52023 3.34375 4.58195 3.34375 4.59414C3.34375 4.60633 3.30859 4.65006 3.26562 4.69135C3.22266 4.73263 3.1875 4.77658 3.1875 4.789C3.1875 4.80142 3.15234 4.84537 3.10938 4.88666C3.06641 4.92795 3.03125 4.97207 3.03125 4.9847C3.03125 4.99736 3.00488 5.03234 2.97266 5.06244C2.94043 5.09254 2.91406 5.12929 2.91406 5.14408C2.91406 5.15888 2.89648 5.18367 2.875 5.19916C2.85352 5.21465 2.83594 5.23943 2.83594 5.25424C2.83594 5.26902 2.80957 5.30578 2.77734 5.33588C2.74512 5.36597 2.71875 5.40273 2.71875 5.41752C2.71875 5.43232 2.70117 5.45711 2.67969 5.4726C2.6582 5.48808 2.64062 5.51638 2.64062 5.53551C2.64062 5.55461 2.63184 5.57025 2.62109 5.57025C2.61035 5.57025 2.60156 5.5859 2.60156 5.605C2.60156 5.62412 2.58398 5.65242 2.5625 5.66791C2.54102 5.6834 2.52344 5.70976 2.52344 5.7265C2.52344 5.74324 2.50586 5.76961 2.48438 5.7851C2.46289 5.80058 2.44531 5.82888 2.44531 5.84801C2.44531 5.86711 2.43652 5.88275 2.42578 5.88275C2.41504 5.88275 2.40625 5.8984 2.40625 5.9175C2.40625 5.93662 2.38867 5.96492 2.36719 5.98041C2.3457 5.9959 2.32812 6.0242 2.32812 6.04332C2.32812 6.06242 2.31934 6.07806 2.30859 6.07806C2.29785 6.07806 2.28906 6.09564 2.28906 6.11713C2.28906 6.13861 2.28027 6.15619 2.26953 6.15619C2.25879 6.15619 2.25 6.17183 2.25 6.19094C2.25 6.21006 2.23242 6.23836 2.21094 6.25385C2.18945 6.26933 2.17188 6.29763 2.17188 6.31676C2.17188 6.33586 2.16309 6.3515 2.15234 6.3515C2.1416 6.3515 2.13281 6.36908 2.13281 6.39056C2.13281 6.41205 2.12402 6.42963 2.11328 6.42963C2.10254 6.42963 2.09375 6.4472 2.09375 6.46869C2.09375 6.49017 2.08496 6.50775 2.07422 6.50775C2.06348 6.50775 2.05469 6.52533 2.05469 6.54681C2.05469 6.5683 2.0459 6.58588 2.03516 6.58588C2.02441 6.58588 2.01562 6.60345 2.01562 6.62494C2.01562 6.64642 2.00684 6.664 1.99609 6.664C1.98535 6.664 1.97656 6.68158 1.97656 6.70306C1.97656 6.72455 1.96777 6.74213 1.95703 6.74213C1.94629 6.74213 1.9375 6.7597 1.9375 6.78119C1.9375 6.80267 1.92871 6.82025 1.91797 6.82025C1.90723 6.82025 1.89844 6.84662 1.89844 6.87885C1.89844 6.91107 1.88965 6.93744 1.87891 6.93744C1.86816 6.93744 1.85938 6.95502 1.85938 6.9765C1.85938 6.99799 1.85059 7.01556 1.83984 7.01556C1.8291 7.01556 1.82031 7.03314 1.82031 7.05463C1.82031 7.07611 1.81152 7.09369 1.80078 7.09369C1.79004 7.09369 1.78125 7.12006 1.78125 7.15228C1.78125 7.18451 1.77246 7.21088 1.76172 7.21088C1.75098 7.21088 1.74219 7.22845 1.74219 7.24994C1.74219 7.27142 1.7334 7.289 1.72266 7.289C1.71191 7.289 1.70312 7.31537 1.70312 7.3476C1.70312 7.37982 1.69434 7.40619 1.68359 7.40619C1.67285 7.40619 1.66406 7.42377 1.66406 7.44525C1.66406 7.46674 1.65527 7.48431 1.64453 7.48431C1.63379 7.48431 1.625 7.51068 1.625 7.54291C1.625 7.57513 1.61621 7.6015 1.60547 7.6015C1.59473 7.6015 1.58594 7.62787 1.58594 7.6601C1.58594 7.69232 1.57715 7.71869 1.56641 7.71869C1.55566 7.71869 1.54688 7.73627 1.54688 7.75775C1.54688 7.77924 1.53809 7.79681 1.52734 7.79681C1.5166 7.79681 1.50781 7.82318 1.50781 7.85541C1.50781 7.88763 1.49902 7.914 1.48828 7.914C1.47754 7.914 1.46875 7.94037 1.46875 7.9726C1.46875 8.00482 1.45996 8.03119 1.44922 8.03119C1.43848 8.03119 1.42969 8.06635 1.42969 8.10931C1.42969 8.15228 1.4209 8.18744 1.41016 8.18744C1.39941 8.18744 1.39062 8.21381 1.39062 8.24603C1.39062 8.27826 1.38184 8.30463 1.37109 8.30463C1.36035 8.30463 1.35156 8.33978 1.35156 8.38275C1.35156 8.42572 1.34277 8.46088 1.33203 8.46088C1.32129 8.46088 1.3125 8.49603 1.3125 8.539C1.3125 8.58197 1.30371 8.61713 1.29297 8.61713C1.28223 8.61713 1.27344 8.65228 1.27344 8.69525C1.27344 8.73822 1.26465 8.77338 1.25391 8.77338C1.24316 8.77338 1.23438 8.80853 1.23438 8.8515C1.23438 8.89447 1.22559 8.92963 1.21484 8.92963C1.20398 8.92963 1.19531 8.98172 1.19531 9.04681C1.19531 9.11191 1.18664 9.164 1.17578 9.164C1.16504 9.164 1.15625 9.20795 1.15625 9.26166C1.15625 9.31537 1.14746 9.35931 1.13672 9.35931C1.12557 9.35931 1.11719 9.41791 1.11719 9.49603C1.11719 9.57416 1.10881 9.63275 1.09766 9.63275C1.08627 9.63275 1.07812 9.69785 1.07812 9.789C1.07812 9.88015 1.06998 9.94525 1.05859 9.94525C1.04666 9.94525 1.03906 10.0364 1.03906 10.1796C1.03906 10.3228 1.03146 10.414 1.01953 10.414C1.00695 10.414 1 10.6223 1 10.9999C1 11.3775 1.00695 11.5859 1.01953 11.5859C1.03146 11.5859 1.03906 11.677 1.03906 11.8203C1.03906 11.9635 1.04666 12.0546 1.05859 12.0546C1.06998 12.0546 1.07812 12.1197 1.07812 12.2109C1.07812 12.302 1.08627 12.3671 1.09766 12.3671C1.10881 12.3671 1.11719 12.4257 1.11719 12.5038C1.11719 12.582 1.12557 12.6406 1.13672 12.6406C1.14746 12.6406 1.15625 12.6845 1.15625 12.7382C1.15625 12.7919 1.16504 12.8359 1.17578 12.8359C1.18664 12.8359 1.19531 12.888 1.19531 12.9531C1.19531 13.0182 1.20398 13.0703 1.21484 13.0703C1.22559 13.0703 1.23438 13.1054 1.23438 13.1484C1.23438 13.1913 1.24316 13.2265 1.25391 13.2265C1.26465 13.2265 1.27344 13.2617 1.27344 13.3046C1.27344 13.3476 1.28223 13.3828 1.29297 13.3828C1.30371 13.3828 1.3125 13.4179 1.3125 13.4609C1.3125 13.5038 1.32129 13.539 1.33203 13.539C1.34277 13.539 1.35156 13.5742 1.35156 13.6171C1.35156 13.6601 1.36035 13.6953 1.37109 13.6953C1.38184 13.6953 1.39062 13.7216 1.39062 13.7538C1.39062 13.7861 1.39941 13.8124 1.41016 13.8124C1.4209 13.8124 1.42969 13.8476 1.42969 13.8906C1.42969 13.9335 1.43848 13.9687 1.44922 13.9687C1.45996 13.9687 1.46875 13.9951 1.46875 14.0273C1.46875 14.0595 1.47754 14.0859 1.48828 14.0859C1.49902 14.0859 1.50781 14.1122 1.50781 14.1445C1.50781 14.1767 1.5166 14.2031 1.52734 14.2031C1.53809 14.2031 1.54688 14.2206 1.54688 14.2421C1.54688 14.2636 1.55566 14.2812 1.56641 14.2812C1.57715 14.2812 1.58594 14.3076 1.58594 14.3398C1.58594 14.372 1.59473 14.3984 1.60547 14.3984C1.61621 14.3984 1.625 14.4247 1.625 14.457C1.625 14.4892 1.63379 14.5156 1.64453 14.5156C1.65527 14.5156 1.66406 14.5331 1.66406 14.5546C1.66406 14.5761 1.67285 14.5937 1.68359 14.5937C1.69434 14.5937 1.70312 14.6201 1.70312 14.6523C1.70312 14.6845 1.71191 14.7109 1.72266 14.7109C1.7334 14.7109 1.74219 14.7285 1.74219 14.7499C1.74219 14.7714 1.75098 14.789 1.76172 14.789C1.77246 14.789 1.78125 14.8154 1.78125 14.8476C1.78125 14.8798 1.79004 14.9062 1.80078 14.9062C1.81152 14.9062 1.82031 14.9238 1.82031 14.9453C1.82031 14.9667 1.8291 14.9843 1.83984 14.9843C1.85059 14.9843 1.85938 15.0019 1.85938 15.0234C1.85938 15.0449 1.86816 15.0624 1.87891 15.0624C1.88965 15.0624 1.89844 15.0888 1.89844 15.121C1.89844 15.1533 1.90723 15.1796 1.91797 15.1796C1.92871 15.1796 1.9375 15.1972 1.9375 15.2187C1.9375 15.2402 1.94629 15.2578 1.95703 15.2578C1.96777 15.2578 1.97656 15.2753 1.97656 15.2968C1.97656 15.3183 1.98535 15.3359 1.99609 15.3359C2.00684 15.3359 2.01562 15.3535 2.01562 15.3749C2.01562 15.3964 2.02441 15.414 2.03516 15.414C2.0459 15.414 2.05469 15.4316 2.05469 15.4531C2.05469 15.4745 2.06348 15.4921 2.07422 15.4921C2.08496 15.4921 2.09375 15.5097 2.09375 15.5312C2.09375 15.5527 2.10254 15.5703 2.11328 15.5703C2.12402 15.5703 2.13281 15.5878 2.13281 15.6093C2.13281 15.6308 2.1416 15.6484 2.15234 15.6484C2.16309 15.6484 2.17188 15.664 2.17188 15.6831C2.17188 15.7022 2.18945 15.7305 2.21094 15.746C2.23242 15.7615 2.25 15.7898 2.25 15.8089C2.25 15.828 2.25879 15.8437 2.26953 15.8437C2.28027 15.8437 2.28906 15.8613 2.28906 15.8828C2.28906 15.9042 2.29785 15.9218 2.30859 15.9218C2.31934 15.9218 2.32812 15.9375 2.32812 15.9566C2.32812 15.9757 2.3457 16.004 2.36719 16.0195C2.38867 16.035 2.40625 16.0633 2.40625 16.0824C2.40625 16.1015 2.41504 16.1171 2.42578 16.1171C2.43652 16.1171 2.44531 16.1328 2.44531 16.1519C2.44531 16.171 2.46289 16.1993 2.48438 16.2148C2.50586 16.2303 2.52344 16.2566 2.52344 16.2734C2.52344 16.2901 2.54102 16.3165 2.5625 16.332C2.58398 16.3475 2.60156 16.3758 2.60156 16.3949C2.60156 16.414 2.61035 16.4296 2.62109 16.4296C2.63184 16.4296 2.64062 16.4453 2.64062 16.4644C2.64062 16.4835 2.6582 16.5118 2.67969 16.5273C2.70117 16.5428 2.71875 16.5676 2.71875 16.5824C2.71875 16.5971 2.74512 16.6339 2.77734 16.664C2.80957 16.6941 2.83594 16.7309 2.83594 16.7456C2.83594 16.7604 2.85352 16.7852 2.875 16.8007C2.89648 16.8162 2.91406 16.841 2.91406 16.8558C2.91406 16.8706 2.94043 16.9073 2.97266 16.9374C3.00488 16.9675 3.03125 17.0025 3.03125 17.0152C3.03125 17.0278 3.06641 17.0719 3.10938 17.1132C3.15234 17.1545 3.1875 17.1985 3.1875 17.2109C3.1875 17.2233 3.22266 17.2672 3.26562 17.3085C3.30859 17.3498 3.34375 17.3935 3.34375 17.4056C3.34375 17.4177 3.40527 17.4883 3.48047 17.5624C3.55566 17.6366 3.61719 17.7066 3.61719 17.7179C3.61719 17.7448 4.25512 18.3828 4.28205 18.3828C4.29338 18.3828 4.36334 18.4443 4.4375 18.5195C4.51166 18.5947 4.58223 18.6562 4.59434 18.6562C4.60645 18.6562 4.65012 18.6913 4.69141 18.7343C4.7327 18.7773 4.77664 18.8124 4.78906 18.8124C4.80148 18.8124 4.84543 18.8476 4.88672 18.8906C4.92801 18.9335 4.97213 18.9687 4.98477 18.9687C4.99742 18.9687 5.0324 18.9951 5.0625 19.0273C5.0926 19.0595 5.12936 19.0859 5.14414 19.0859C5.15895 19.0859 5.18373 19.1035 5.19922 19.1249C5.21471 19.1464 5.23949 19.164 5.2543 19.164C5.26908 19.164 5.30584 19.1904 5.33594 19.2226C5.36603 19.2548 5.40279 19.2812 5.41758 19.2812C5.43238 19.2812 5.45717 19.2988 5.47266 19.3203C5.48814 19.3417 5.51645 19.3593 5.53557 19.3593C5.55467 19.3593 5.57031 19.3681 5.57031 19.3788C5.57031 19.3896 5.58596 19.3984 5.60506 19.3984C5.62418 19.3984 5.65248 19.416 5.66797 19.4374C5.68346 19.4589 5.70982 19.4765 5.72656 19.4765C5.7433 19.4765 5.76967 19.4941 5.78516 19.5156C5.80064 19.537 5.82895 19.5546 5.84807 19.5546C5.86717 19.5546 5.88281 19.5634 5.88281 19.5742C5.88281 19.5849 5.89846 19.5937 5.91756 19.5937C5.93668 19.5937 5.96498 19.6113 5.98047 19.6328C5.99596 19.6542 6.02426 19.6718 6.04338 19.6718C6.06248 19.6718 6.07812 19.6806 6.07812 19.6913C6.07812 19.7021 6.0957 19.7109 6.11719 19.7109C6.13867 19.7109 6.15625 19.7197 6.15625 19.7304C6.15625 19.7411 6.17189 19.7499 6.191 19.7499C6.21012 19.7499 6.23842 19.7675 6.25391 19.789C6.26939 19.8105 6.2977 19.8281 6.31682 19.8281C6.33592 19.8281 6.35156 19.8369 6.35156 19.8476C6.35156 19.8583 6.36914 19.8671 6.39062 19.8671C6.41211 19.8671 6.42969 19.8759 6.42969 19.8867C6.42969 19.8974 6.44727 19.9062 6.46875 19.9062C6.49023 19.9062 6.50781 19.915 6.50781 19.9257C6.50781 19.9365 6.52539 19.9453 6.54688 19.9453C6.56836 19.9453 6.58594 19.954 6.58594 19.9648C6.58594 19.9755 6.60352 19.9843 6.625 19.9843C6.64648 19.9843 6.66406 19.9931 6.66406 20.0038C6.66406 20.0146 6.68164 20.0234 6.70312 20.0234C6.72461 20.0234 6.74219 20.0322 6.74219 20.0429C6.74219 20.0536 6.75977 20.0624 6.78125 20.0624C6.80273 20.0624 6.82031 20.0712 6.82031 20.082C6.82031 20.0927 6.84668 20.1015 6.87891 20.1015C6.91113 20.1015 6.9375 20.1103 6.9375 20.121C6.9375 20.1318 6.95508 20.1406 6.97656 20.1406C6.99805 20.1406 7.01562 20.1494 7.01562 20.1601C7.01562 20.1708 7.0332 20.1796 7.05469 20.1796C7.07617 20.1796 7.09375 20.1884 7.09375 20.1992C7.09375 20.2099 7.12012 20.2187 7.15234 20.2187C7.18457 20.2187 7.21094 20.2275 7.21094 20.2382C7.21094 20.249 7.22852 20.2578 7.25 20.2578C7.27148 20.2578 7.28906 20.2665 7.28906 20.2773C7.28906 20.288 7.31543 20.2968 7.34766 20.2968C7.37988 20.2968 7.40625 20.3056 7.40625 20.3163C7.40625 20.3271 7.42383 20.3359 7.44531 20.3359C7.4668 20.3359 7.48438 20.3447 7.48438 20.3554C7.48438 20.3661 7.51074 20.3749 7.54297 20.3749C7.5752 20.3749 7.60156 20.3837 7.60156 20.3945C7.60156 20.4052 7.62793 20.414 7.66016 20.414C7.69238 20.414 7.71875 20.4228 7.71875 20.4335C7.71875 20.4443 7.73633 20.4531 7.75781 20.4531C7.7793 20.4531 7.79688 20.4619 7.79688 20.4726C7.79688 20.4833 7.82324 20.4921 7.85547 20.4921C7.8877 20.4921 7.91406 20.5009 7.91406 20.5117C7.91406 20.5224 7.94043 20.5312 7.97266 20.5312C8.00488 20.5312 8.03125 20.54 8.03125 20.5507C8.03125 20.5615 8.06641 20.5703 8.10938 20.5703C8.15234 20.5703 8.1875 20.579 8.1875 20.5898C8.1875 20.6005 8.21387 20.6093 8.24609 20.6093C8.27832 20.6093 8.30469 20.6181 8.30469 20.6288C8.30469 20.6396 8.33984 20.6484 8.38281 20.6484C8.42578 20.6484 8.46094 20.6572 8.46094 20.6679C8.46094 20.6786 8.49609 20.6874 8.53906 20.6874C8.58203 20.6874 8.61719 20.6962 8.61719 20.707C8.61719 20.7177 8.65234 20.7265 8.69531 20.7265C8.73828 20.7265 8.77344 20.7353 8.77344 20.746C8.77344 20.7568 8.80859 20.7656 8.85156 20.7656C8.89453 20.7656 8.92969 20.7744 8.92969 20.7851C8.92969 20.796 8.98178 20.8046 9.04688 20.8046C9.11197 20.8046 9.16406 20.8133 9.16406 20.8242C9.16406 20.8349 9.20801 20.8437 9.26172 20.8437C9.31543 20.8437 9.35938 20.8525 9.35938 20.8632C9.35938 20.8744 9.41797 20.8828 9.49609 20.8828C9.57422 20.8828 9.63281 20.8911 9.63281 20.9023C9.63281 20.9137 9.69791 20.9218 9.78906 20.9218C9.88021 20.9218 9.94531 20.93 9.94531 20.9413C9.94531 20.9533 10.0365 20.9609 10.1797 20.9609C10.3229 20.9609 10.4141 20.9685 10.4141 20.9804C10.4141 20.993 10.6224 20.9999 11 20.9999C11.3776 20.9999 11.5859 20.993 11.5859 20.9804C11.5859 20.9685 11.6771 20.9609 11.8203 20.9609C11.9635 20.9609 12.0547 20.9533 12.0547 20.9413C12.0547 20.93 12.1198 20.9218 12.2109 20.9218C12.3021 20.9218 12.3672 20.9137 12.3672 20.9023C12.3672 20.8911 12.4258 20.8828 12.5039 20.8828C12.582 20.8828 12.6406 20.8744 12.6406 20.8632C12.6406 20.8525 12.6846 20.8437 12.7383 20.8437C12.792 20.8437 12.8359 20.8349 12.8359 20.8242C12.8359 20.8133 12.888 20.8046 12.9531 20.8046C13.0182 20.8046 13.0703 20.796 13.0703 20.7851C13.0703 20.7744 13.1055 20.7656 13.1484 20.7656C13.1914 20.7656 13.2266 20.7568 13.2266 20.746C13.2266 20.7353 13.2617 20.7265 13.3047 20.7265C13.3477 20.7265 13.3828 20.7177 13.3828 20.707C13.3828 20.6962 13.418 20.6874 13.4609 20.6874C13.5039 20.6874 13.5391 20.6786 13.5391 20.6679C13.5391 20.6572 13.5742 20.6484 13.6172 20.6484C13.6602 20.6484 13.6953 20.6396 13.6953 20.6288C13.6953 20.6181 13.7217 20.6093 13.7539 20.6093C13.7861 20.6093 13.8125 20.6005 13.8125 20.5898C13.8125 20.579 13.8477 20.5703 13.8906 20.5703C13.9336 20.5703 13.9688 20.5615 13.9688 20.5507C13.9688 20.54 13.9951 20.5312 14.0273 20.5312C14.0596 20.5312 14.0859 20.5224 14.0859 20.5117C14.0859 20.5009 14.1123 20.4921 14.1445 20.4921C14.1768 20.4921 14.2031 20.4833 14.2031 20.4726C14.2031 20.4619 14.2207 20.4531 14.2422 20.4531C14.2637 20.4531 14.2812 20.4443 14.2812 20.4335C14.2812 20.4228 14.3076 20.414 14.3398 20.414C14.3721 20.414 14.3984 20.4052 14.3984 20.3945C14.3984 20.3837 14.4248 20.3749 14.457 20.3749C14.4893 20.3749 14.5156 20.3661 14.5156 20.3554C14.5156 20.3447 14.5332 20.3359 14.5547 20.3359C14.5762 20.3359 14.5938 20.3271 14.5938 20.3163C14.5938 20.3056 14.6201 20.2968 14.6523 20.2968C14.6846 20.2968 14.7109 20.288 14.7109 20.2773C14.7109 20.2665 14.7285 20.2578 14.75 20.2578C14.7715 20.2578 14.7891 20.249 14.7891 20.2382C14.7891 20.2275 14.8154 20.2187 14.8477 20.2187C14.8799 20.2187 14.9062 20.2099 14.9062 20.1992C14.9062 20.1884 14.9238 20.1796 14.9453 20.1796C14.9668 20.1796 14.9844 20.1708 14.9844 20.1601C14.9844 20.1494 15.002 20.1406 15.0234 20.1406C15.0449 20.1406 15.0625 20.1318 15.0625 20.121C15.0625 20.1103 15.0889 20.1015 15.1211 20.1015C15.1533 20.1015 15.1797 20.0927 15.1797 20.082C15.1797 20.0712 15.1973 20.0624 15.2188 20.0624C15.2402 20.0624 15.2578 20.0536 15.2578 20.0429C15.2578 20.0322 15.2754 20.0234 15.2969 20.0234C15.3184 20.0234 15.3359 20.0146 15.3359 20.0038C15.3359 19.9931 15.3535 19.9843 15.375 19.9843C15.3965 19.9843 15.4141 19.9755 15.4141 19.9648C15.4141 19.954 15.4316 19.9453 15.4531 19.9453C15.4746 19.9453 15.4922 19.9365 15.4922 19.9257C15.4922 19.915 15.5098 19.9062 15.5312 19.9062C15.5527 19.9062 15.5703 19.8974 15.5703 19.8867C15.5703 19.8759 15.5879 19.8671 15.6094 19.8671C15.6309 19.8671 15.6484 19.8583 15.6484 19.8476C15.6484 19.8369 15.6641 19.8281 15.6832 19.8281C15.7023 19.8281 15.7306 19.8105 15.7461 19.789C15.7616 19.7675 15.7899 19.7499 15.809 19.7499C15.8281 19.7499 15.8438 19.7411 15.8438 19.7304C15.8438 19.7197 15.8613 19.7109 15.8828 19.7109C15.9043 19.7109 15.9219 19.7021 15.9219 19.6913C15.9219 19.6806 15.9375 19.6718 15.9566 19.6718C15.9757 19.6718 16.004 19.6542 16.0195 19.6328C16.035 19.6113 16.0633 19.5937 16.0824 19.5937C16.1015 19.5937 16.1172 19.5849 16.1172 19.5742C16.1172 19.5634 16.1328 19.5546 16.1519 19.5546C16.1711 19.5546 16.1994 19.537 16.2148 19.5156C16.2303 19.4941 16.2567 19.4765 16.2734 19.4765C16.2902 19.4765 16.3165 19.4589 16.332 19.4374C16.3475 19.416 16.3758 19.3984 16.3949 19.3984C16.414 19.3984 16.4297 19.3896 16.4297 19.3788C16.4297 19.3681 16.4453 19.3593 16.4644 19.3593C16.4836 19.3593 16.5119 19.3417 16.5273 19.3203C16.5428 19.2988 16.5676 19.2812 16.5824 19.2812C16.5972 19.2812 16.634 19.2548 16.6641 19.2226C16.6942 19.1904 16.7309 19.164 16.7457 19.164C16.7605 19.164 16.7853 19.1464 16.8008 19.1249C16.8163 19.1035 16.8411 19.0859 16.8559 19.0859C16.8706 19.0859 16.9074 19.0595 16.9375 19.0273C16.9676 18.9951 17.0026 18.9687 17.0152 18.9687C17.0279 18.9687 17.072 18.9335 17.1133 18.8906C17.1546 18.8476 17.1985 18.8124 17.2109 18.8124C17.2234 18.8124 17.2673 18.7773 17.3086 18.7343C17.3499 18.6913 17.3936 18.6562 17.4058 18.6562C17.418 18.6562 17.4797 18.6035 17.543 18.539C17.6062 18.4745 17.6673 18.4218 17.6787 18.4218C17.7058 18.4218 18.4219 17.7058 18.4219 17.6787C18.4219 17.6673 18.4746 17.6062 18.5391 17.5429C18.6035 17.4796 18.6562 17.4179 18.6562 17.4057C18.6562 17.3936 18.6914 17.3498 18.7344 17.3085C18.7773 17.2672 18.8125 17.2233 18.8125 17.2109C18.8125 17.1985 18.8477 17.1545 18.8906 17.1132C18.9336 17.0719 18.9688 17.0278 18.9688 17.0152C18.9688 17.0025 18.9951 16.9675 19.0273 16.9374C19.0596 16.9073 19.0859 16.8706 19.0859 16.8558C19.0859 16.841 19.1035 16.8162 19.125 16.8007C19.1465 16.7852 19.1641 16.7604 19.1641 16.7456C19.1641 16.7309 19.1904 16.6941 19.2227 16.664C19.2549 16.6339 19.2812 16.5971 19.2812 16.5824C19.2812 16.5676 19.2988 16.5428 19.3203 16.5273C19.3418 16.5118 19.3594 16.4835 19.3594 16.4644C19.3594 16.4453 19.3682 16.4296 19.3789 16.4296C19.3896 16.4296 19.3984 16.414 19.3984 16.3949C19.3984 16.3758 19.416 16.3475 19.4375 16.332C19.459 16.3165 19.4766 16.2901 19.4766 16.2734C19.4766 16.2566 19.4941 16.2303 19.5156 16.2148C19.5371 16.1993 19.5547 16.171 19.5547 16.1519C19.5547 16.1328 19.5635 16.1171 19.5742 16.1171C19.585 16.1171 19.5938 16.1015 19.5938 16.0824C19.5938 16.0633 19.6113 16.035 19.6328 16.0195C19.6543 16.004 19.6719 15.9757 19.6719 15.9566C19.6719 15.9375 19.6807 15.9218 19.6914 15.9218C19.7021 15.9218 19.7109 15.9042 19.7109 15.8828C19.7109 15.8613 19.7197 15.8437 19.7305 15.8437C19.7412 15.8437 19.75 15.828 19.75 15.8089C19.75 15.7898 19.7676 15.7615 19.7891 15.746C19.8105 15.7305 19.8281 15.7022 19.8281 15.6831C19.8281 15.664 19.8369 15.6484 19.8477 15.6484C19.8584 15.6484 19.8672 15.6308 19.8672 15.6093C19.8672 15.5878 19.876 15.5703 19.8867 15.5703C19.8975 15.5703 19.9062 15.5527 19.9062 15.5312C19.9062 15.5097 19.915 15.4921 19.9258 15.4921C19.9365 15.4921 19.9453 15.4745 19.9453 15.4531C19.9453 15.4316 19.9541 15.414 19.9648 15.414C19.9756 15.414 19.9844 15.3964 19.9844 15.3749C19.9844 15.3535 19.9932 15.3359 20.0039 15.3359C20.0146 15.3359 20.0234 15.3183 20.0234 15.2968C20.0234 15.2753 20.0322 15.2578 20.043 15.2578C20.0537 15.2578 20.0625 15.2402 20.0625 15.2187C20.0625 15.1972 20.0713 15.1796 20.082 15.1796C20.0928 15.1796 20.1016 15.1533 20.1016 15.121C20.1016 15.0888 20.1104 15.0624 20.1211 15.0624C20.1318 15.0624 20.1406 15.0449 20.1406 15.0234C20.1406 15.0019 20.1494 14.9843 20.1602 14.9843C20.1709 14.9843 20.1797 14.9667 20.1797 14.9453C20.1797 14.9238 20.1885 14.9062 20.1992 14.9062C20.21 14.9062 20.2188 14.8798 20.2188 14.8476C20.2188 14.8154 20.2275 14.789 20.2383 14.789C20.249 14.789 20.2578 14.7714 20.2578 14.7499C20.2578 14.7285 20.2666 14.7109 20.2773 14.7109C20.2881 14.7109 20.2969 14.6845 20.2969 14.6523C20.2969 14.6201 20.3057 14.5937 20.3164 14.5937C20.3271 14.5937 20.3359 14.5761 20.3359 14.5546C20.3359 14.5331 20.3447 14.5156 20.3555 14.5156C20.3662 14.5156 20.375 14.4892 20.375 14.457C20.375 14.4247 20.3838 14.3984 20.3945 14.3984C20.4053 14.3984 20.4141 14.372 20.4141 14.3398C20.4141 14.3076 20.4229 14.2812 20.4336 14.2812C20.4443 14.2812 20.4531 14.2636 20.4531 14.2421C20.4531 14.2206 20.4619 14.2031 20.4727 14.2031C20.4834 14.2031 20.4922 14.1767 20.4922 14.1445C20.4922 14.1122 20.501 14.0859 20.5117 14.0859C20.5225 14.0859 20.5312 14.0595 20.5312 14.0273C20.5312 13.9951 20.54 13.9687 20.5508 13.9687C20.5615 13.9687 20.5703 13.9335 20.5703 13.8906C20.5703 13.8476 20.5791 13.8124 20.5898 13.8124C20.6006 13.8124 20.6094 13.7861 20.6094 13.7538C20.6094 13.7216 20.6182 13.6953 20.6289 13.6953C20.6396 13.6953 20.6484 13.6601 20.6484 13.6171C20.6484 13.5742 20.6572 13.539 20.668 13.539C20.6787 13.539 20.6875 13.5038 20.6875 13.4609C20.6875 13.4179 20.6963 13.3828 20.707 13.3828C20.7178 13.3828 20.7266 13.3476 20.7266 13.3046C20.7266 13.2617 20.7354 13.2265 20.7461 13.2265C20.7568 13.2265 20.7656 13.1913 20.7656 13.1484C20.7656 13.1054 20.7744 13.0703 20.7852 13.0703C20.796 13.0703 20.8047 13.0182 20.8047 12.9531C20.8047 12.888 20.8134 12.8359 20.8242 12.8359C20.835 12.8359 20.8438 12.7919 20.8438 12.7382C20.8438 12.6845 20.8525 12.6406 20.8633 12.6406C20.8744 12.6406 20.8828 12.582 20.8828 12.5038C20.8828 12.4257 20.8912 12.3671 20.9023 12.3671C20.9137 12.3671 20.9219 12.302 20.9219 12.2109C20.9219 12.1197 20.93 12.0546 20.9414 12.0546C20.9533 12.0546 20.9609 11.9635 20.9609 11.8203C20.9609 11.677 20.9685 11.5859 20.9805 11.5859C20.993 11.5859 21 11.3775 21 10.9999C21 10.6223 20.993 10.414 20.9805 10.414C20.9685 10.414 20.9609 10.3228 20.9609 10.1796C20.9609 10.0364 20.9533 9.94525 20.9414 9.94525C20.93 9.94525 20.9219 9.88015 20.9219 9.789C20.9219 9.69785 20.9137 9.63275 20.9023 9.63275C20.8912 9.63275 20.8828 9.57416 20.8828 9.49603C20.8828 9.41791 20.8744 9.35931 20.8633 9.35931C20.8525 9.35931 20.8438 9.31537 20.8438 9.26166C20.8438 9.20795 20.835 9.164 20.8242 9.164C20.8134 9.164 20.8047 9.11191 20.8047 9.04681C20.8047 8.98172 20.796 8.92963 20.7852 8.92963C20.7744 8.92963 20.7656 8.89447 20.7656 8.8515C20.7656 8.80853 20.7568 8.77338 20.7461 8.77338C20.7354 8.77338 20.7266 8.73822 20.7266 8.69525C20.7266 8.65228 20.7178 8.61713 20.707 8.61713C20.6963 8.61713 20.6875 8.58197 20.6875 8.539C20.6875 8.49603 20.6787 8.46088 20.668 8.46088C20.6572 8.46088 20.6484 8.42572 20.6484 8.38275C20.6484 8.33978 20.6396 8.30463 20.6289 8.30463C20.6182 8.30463 20.6094 8.27826 20.6094 8.24603C20.6094 8.21381 20.6006 8.18744 20.5898 8.18744C20.5791 8.18744 20.5703 8.15228 20.5703 8.10931C20.5703 8.06635 20.5615 8.03119 20.5508 8.03119C20.54 8.03119 20.5312 8.00482 20.5312 7.9726C20.5312 7.94037 20.5225 7.914 20.5117 7.914C20.501 7.914 20.4922 7.88763 20.4922 7.85541C20.4922 7.82318 20.4834 7.79681 20.4727 7.79681C20.4619 7.79681 20.4531 7.77924 20.4531 7.75775C20.4531 7.73627 20.4443 7.71869 20.4336 7.71869C20.4229 7.71869 20.4141 7.69232 20.4141 7.6601C20.4141 7.62787 20.4053 7.6015 20.3945 7.6015C20.3838 7.6015 20.375 7.57513 20.375 7.54291C20.375 7.51068 20.3662 7.48431 20.3555 7.48431C20.3447 7.48431 20.3359 7.46674 20.3359 7.44525C20.3359 7.42377 20.3271 7.40619 20.3164 7.40619C20.3057 7.40619 20.2969 7.37982 20.2969 7.3476C20.2969 7.31537 20.2881 7.289 20.2773 7.289C20.2666 7.289 20.2578 7.27142 20.2578 7.24994C20.2578 7.22845 20.249 7.21088 20.2383 7.21088C20.2275 7.21088 20.2188 7.18451 20.2188 7.15228C20.2188 7.12006 20.21 7.09369 20.1992 7.09369C20.1885 7.09369 20.1797 7.07611 20.1797 7.05463C20.1797 7.03314 20.1709 7.01556 20.1602 7.01556C20.1494 7.01556 20.1406 6.99799 20.1406 6.9765C20.1406 6.95502 20.1318 6.93744 20.1211 6.93744C20.1104 6.93744 20.1016 6.91107 20.1016 6.87885C20.1016 6.84662 20.0928 6.82025 20.082 6.82025C20.0713 6.82025 20.0625 6.80267 20.0625 6.78119C20.0625 6.7597 20.0537 6.74213 20.043 6.74213C20.0322 6.74213 20.0234 6.72455 20.0234 6.70306C20.0234 6.68158 20.0146 6.664 20.0039 6.664C19.9932 6.664 19.9844 6.64642 19.9844 6.62494C19.9844 6.60345 19.9756 6.58588 19.9648 6.58588C19.9541 6.58588 19.9453 6.5683 19.9453 6.54681C19.9453 6.52533 19.9365 6.50775 19.9258 6.50775C19.915 6.50775 19.9062 6.49017 19.9062 6.46869C19.9062 6.4472 19.8975 6.42963 19.8867 6.42963C19.876 6.42963 19.8672 6.41205 19.8672 6.39056C19.8672 6.36908 19.8584 6.3515 19.8477 6.3515C19.8369 6.3515 19.8281 6.33586 19.8281 6.31676C19.8281 6.29763 19.8105 6.26933 19.7891 6.25385C19.7676 6.23836 19.75 6.21006 19.75 6.19094C19.75 6.17183 19.7412 6.15619 19.7305 6.15619C19.7197 6.15619 19.7109 6.13861 19.7109 6.11713C19.7109 6.09564 19.7021 6.07806 19.6914 6.07806C19.6807 6.07806 19.6719 6.06242 19.6719 6.04332C19.6719 6.0242 19.6543 5.9959 19.6328 5.98041C19.6113 5.96492 19.5938 5.93662 19.5938 5.9175C19.5938 5.8984 19.585 5.88275 19.5742 5.88275C19.5635 5.88275 19.5547 5.86711 19.5547 5.84801C19.5547 5.82888 19.5371 5.80058 19.5156 5.7851C19.4941 5.76961 19.4766 5.74324 19.4766 5.7265C19.4766 5.70976 19.459 5.6834 19.4375 5.66791C19.416 5.65242 19.3984 5.62412 19.3984 5.605C19.3984 5.5859 19.3896 5.57025 19.3789 5.57025C19.3682 5.57025 19.3594 5.55461 19.3594 5.53551C19.3594 5.51638 19.3418 5.48808 19.3203 5.4726C19.2988 5.45711 19.2812 5.43232 19.2812 5.41752C19.2812 5.40273 19.2549 5.36597 19.2227 5.33588C19.1904 5.30578 19.1641 5.26902 19.1641 5.25424C19.1641 5.23943 19.1465 5.21465 19.125 5.19916C19.1035 5.18367 19.0859 5.15888 19.0859 5.14408C19.0859 5.12929 19.0596 5.09254 19.0273 5.06244C18.9951 5.03234 18.9688 4.99736 18.9688 4.9847C18.9688 4.97207 18.9336 4.92795 18.8906 4.88666C18.8477 4.84537 18.8125 4.80142 18.8125 4.789C18.8125 4.77658 18.7773 4.73263 18.7344 4.69135C18.6914 4.65006 18.6562 4.60638 18.6562 4.59427C18.6562 4.58217 18.5947 4.5116 18.5195 4.43744C18.4443 4.36328 18.3828 4.29332 18.3828 4.28199C18.3828 4.25506 17.7449 3.61713 17.7179 3.61713C17.7066 3.61713 17.6367 3.5556 17.5625 3.48041C17.4883 3.40521 17.4178 3.34369 17.4057 3.34369C17.3936 3.34369 17.3499 3.30853 17.3086 3.26556C17.2673 3.2226 17.2234 3.18744 17.2109 3.18744C17.1985 3.18744 17.1546 3.15228 17.1133 3.10931C17.072 3.06635 17.0279 3.03119 17.0152 3.03119C17.0026 3.03119 16.9676 3.00482 16.9375 2.9726C16.9074 2.94037 16.8706 2.914 16.8559 2.914C16.8411 2.914 16.8163 2.89642 16.8008 2.87494C16.7853 2.85345 16.7605 2.83588 16.7457 2.83588C16.7309 2.83588 16.6942 2.80951 16.6641 2.77728C16.634 2.74506 16.5972 2.71869 16.5824 2.71869C16.5676 2.71869 16.5428 2.70111 16.5273 2.67963C16.5119 2.65814 16.4836 2.64056 16.4644 2.64056C16.4453 2.64056 16.4297 2.63177 16.4297 2.62103C16.4297 2.61029 16.414 2.6015 16.3949 2.6015C16.3758 2.6015 16.3475 2.58392 16.332 2.56244C16.3165 2.54095 16.2902 2.52338 16.2734 2.52338C16.2567 2.52338 16.2303 2.5058 16.2148 2.48431C16.1994 2.46283 16.1711 2.44525 16.1519 2.44525C16.1328 2.44525 16.1172 2.43646 16.1172 2.42572C16.1172 2.41498 16.1015 2.40619 16.0824 2.40619C16.0633 2.40619 16.035 2.38861 16.0195 2.36713C16.004 2.34564 15.9757 2.32806 15.9566 2.32806C15.9375 2.32806 15.9219 2.31927 15.9219 2.30853C15.9219 2.29779 15.9043 2.289 15.8828 2.289C15.8613 2.289 15.8438 2.28021 15.8438 2.26947C15.8438 2.25873 15.8281 2.24994 15.809 2.24994C15.7899 2.24994 15.7616 2.23236 15.7461 2.21088C15.7306 2.18939 15.7023 2.17181 15.6832 2.17181C15.6641 2.17181 15.6484 2.16302 15.6484 2.15228C15.6484 2.14154 15.6309 2.13275 15.6094 2.13275C15.5879 2.13275 15.5703 2.12396 15.5703 2.11322C15.5703 2.10248 15.5527 2.09369 15.5312 2.09369C15.5098 2.09369 15.4922 2.0849 15.4922 2.07416C15.4922 2.06342 15.4746 2.05463 15.4531 2.05463C15.4316 2.05463 15.4141 2.04584 15.4141 2.0351C15.4141 2.02435 15.3965 2.01556 15.375 2.01556C15.3535 2.01556 15.3359 2.00677 15.3359 1.99603C15.3359 1.98529 15.3184 1.9765 15.2969 1.9765C15.2754 1.9765 15.2578 1.96771 15.2578 1.95697C15.2578 1.94623 15.2402 1.93744 15.2188 1.93744C15.1973 1.93744 15.1797 1.92865 15.1797 1.91791C15.1797 1.90717 15.1533 1.89838 15.1211 1.89838C15.0889 1.89838 15.0625 1.88959 15.0625 1.87885C15.0625 1.8681 15.0449 1.85931 15.0234 1.85931C15.002 1.85931 14.9844 1.85052 14.9844 1.83978C14.9844 1.82904 14.9668 1.82025 14.9453 1.82025C14.9238 1.82025 14.9062 1.81146 14.9062 1.80072C14.9062 1.78998 14.8799 1.78119 14.8477 1.78119C14.8154 1.78119 14.7891 1.7724 14.7891 1.76166C14.7891 1.75092 14.7715 1.74213 14.75 1.74213C14.7285 1.74213 14.7109 1.73334 14.7109 1.7226C14.7109 1.71185 14.6846 1.70306 14.6523 1.70306C14.6201 1.70306 14.5938 1.69427 14.5938 1.68353C14.5938 1.67279 14.5762 1.664 14.5547 1.664C14.5332 1.664 14.5156 1.65521 14.5156 1.64447C14.5156 1.63373 14.4893 1.62494 14.457 1.62494C14.4248 1.62494 14.3984 1.61615 14.3984 1.60541C14.3984 1.59467 14.3721 1.58588 14.3398 1.58588C14.3076 1.58588 14.2812 1.57709 14.2812 1.56635C14.2812 1.5556 14.2637 1.54681 14.2422 1.54681C14.2207 1.54681 14.2031 1.53802 14.2031 1.52728C14.2031 1.51654 14.1768 1.50775 14.1445 1.50775C14.1123 1.50775 14.0859 1.49896 14.0859 1.48822C14.0859 1.47748 14.0596 1.46869 14.0273 1.46869C13.9951 1.46869 13.9688 1.4599 13.9688 1.44916C13.9688 1.43842 13.9336 1.42963 13.8906 1.42963C13.8477 1.42963 13.8125 1.42084 13.8125 1.4101C13.8125 1.39935 13.7861 1.39056 13.7539 1.39056C13.7217 1.39056 13.6953 1.38177 13.6953 1.37103C13.6953 1.36029 13.6602 1.3515 13.6172 1.3515C13.5742 1.3515 13.5391 1.34271 13.5391 1.33197C13.5391 1.32123 13.5039 1.31244 13.4609 1.31244C13.418 1.31244 13.3828 1.30365 13.3828 1.29291C13.3828 1.28217 13.3477 1.27338 13.3047 1.27338C13.2617 1.27338 13.2266 1.26459 13.2266 1.25385C13.2266 1.2431 13.1914 1.23431 13.1484 1.23431C13.1055 1.23431 13.0703 1.22552 13.0703 1.21478C13.0703 1.20392 13.0182 1.19525 12.9531 1.19525C12.888 1.19525 12.8359 1.18658 12.8359 1.17572C12.8359 1.16498 12.792 1.15619 12.7383 1.15619C12.6846 1.15619 12.6406 1.1474 12.6406 1.13666C12.6406 1.12551 12.582 1.11713 12.5039 1.11713C12.4258 1.11713 12.3672 1.10875 12.3672 1.0976C12.3672 1.08621 12.3021 1.07806 12.2109 1.07806C12.1198 1.07806 12.0547 1.06992 12.0547 1.05853C12.0547 1.0466 11.9635 1.039 11.8203 1.039C11.6771 1.039 11.5859 1.0314 11.5859 1.01947C11.5859 1.00689 11.3776 0.999939 11 0.999939C10.6224 0.999939 10.4141 1.00689 10.4141 1.01947ZM15.678 7.41572C15.7906 7.5284 15.8828 7.62978 15.8828 7.64101C15.8828 7.65226 15.9707 7.74873 16.0781 7.85541C16.1855 7.96209 16.2734 8.05877 16.2734 8.07025C16.2734 8.08174 16.3613 8.17842 16.4688 8.2851C16.5762 8.39178 16.6641 8.48845 16.6641 8.49994C16.6641 8.51142 16.752 8.6081 16.8594 8.71478C16.9668 8.82146 17.0547 8.91812 17.0547 8.92959C17.0547 8.95674 16.9255 9.08588 16.8984 9.08588C16.8869 9.08588 16.7903 9.17377 16.6836 9.28119C16.5769 9.38861 16.4802 9.4765 16.4688 9.4765C16.4573 9.4765 16.3606 9.56439 16.2539 9.67181C16.1472 9.77924 16.0505 9.86713 16.0391 9.86713C16.0276 9.86713 15.9309 9.95502 15.8242 10.0624C15.7175 10.1699 15.6209 10.2578 15.6094 10.2578C15.5979 10.2578 15.5012 10.3456 15.3945 10.4531C15.2879 10.5605 15.1912 10.6484 15.1797 10.6484C15.1682 10.6484 15.0715 10.7363 14.9648 10.8437C14.8582 10.9511 14.7615 11.039 14.75 11.039C14.7385 11.039 14.6418 11.1269 14.5352 11.2343C14.4285 11.3417 14.3318 11.4296 14.3203 11.4296C14.3088 11.4296 14.2121 11.5175 14.1055 11.6249C13.9988 11.7324 13.9021 11.8203 13.8906 11.8203C13.8791 11.8203 13.7825 11.9081 13.6758 12.0156C13.5691 12.123 13.4724 12.2109 13.4609 12.2109C13.4495 12.2109 13.3528 12.2988 13.2461 12.4062C13.1394 12.5136 13.0427 12.6015 13.0312 12.6015C13.0198 12.6015 12.9231 12.6894 12.8164 12.7968C12.7097 12.9042 12.613 12.9921 12.6016 12.9921C12.5901 12.9921 12.4934 13.08 12.3867 13.1874C12.28 13.2949 12.1834 13.3828 12.1719 13.3828C12.1604 13.3828 12.0637 13.4706 11.957 13.5781C11.8504 13.6855 11.7537 13.7734 11.7422 13.7734C11.7307 13.7734 11.634 13.8613 11.5273 13.9687C11.4207 14.0761 11.324 14.164 11.3125 14.164C11.301 14.164 11.2043 14.2519 11.0977 14.3593C10.991 14.4667 10.8943 14.5546 10.8828 14.5546C10.8713 14.5546 10.7746 14.6425 10.668 14.7499C10.5613 14.8574 10.4646 14.9453 10.4531 14.9453C10.4416 14.9453 10.345 15.0331 10.2383 15.1406C10.1316 15.248 10.0347 15.3359 10.0229 15.3359C10.011 15.3359 9.95857 15.3798 9.90625 15.4335C9.85393 15.4872 9.80176 15.5312 9.79031 15.5312C9.77885 15.5312 8.78949 14.5512 7.59174 13.3534L5.41398 11.1757L6.24412 10.3455L7.07426 9.51541L8.46086 10.9022C9.22348 11.6649 9.85697 12.289 9.86861 12.289C9.88025 12.289 9.92355 12.2538 9.96484 12.2109C10.0061 12.1679 10.0497 12.1328 10.0616 12.1328C10.0736 12.1328 10.1707 12.0449 10.2773 11.9374C10.384 11.83 10.4807 11.7421 10.4922 11.7421C10.5037 11.7421 10.6004 11.6542 10.707 11.5468C10.8137 11.4394 10.9104 11.3515 10.9219 11.3515C10.9334 11.3515 11.03 11.2636 11.1367 11.1562C11.2434 11.0488 11.3401 10.9609 11.3516 10.9609C11.363 10.9609 11.4597 10.873 11.5664 10.7656C11.6731 10.6581 11.7698 10.5703 11.7812 10.5703C11.7927 10.5703 11.8894 10.4824 11.9961 10.3749C12.1028 10.2675 12.1995 10.1796 12.2109 10.1796C12.2224 10.1796 12.3191 10.0917 12.4258 9.98431C12.5325 9.87689 12.6291 9.789 12.6406 9.789C12.6521 9.789 12.7488 9.70111 12.8555 9.59369C12.9621 9.48627 13.0588 9.39838 13.0703 9.39838C13.0818 9.39838 13.1785 9.31049 13.2852 9.20306C13.3918 9.09564 13.4885 9.00775 13.5 9.00775C13.5115 9.00775 13.6082 8.91986 13.7148 8.81244C13.8215 8.70502 13.9182 8.61713 13.9297 8.61713C13.9412 8.61713 14.0379 8.52924 14.1445 8.42181C14.2512 8.31439 14.3479 8.2265 14.3594 8.2265C14.3709 8.2265 14.4675 8.13861 14.5742 8.03119C14.6809 7.92377 14.7776 7.83588 14.7891 7.83588C14.8005 7.83588 14.8972 7.74799 15.0039 7.64056C15.1106 7.53314 15.2091 7.44472 15.2229 7.44408C15.2368 7.44344 15.2964 7.39123 15.3555 7.32806C15.4146 7.2649 15.4652 7.21269 15.468 7.21205C15.4708 7.2114 15.5653 7.30306 15.678 7.41572Z" fill="#E2474B"/>
</svg>
